<?xml version="1.0" encoding="utf-8"?>
<!-- Generator: Adobe Illustrator 16.0.0, SVG Export Plug-In . SVG Version: 6.00 Build 0)  -->
<!DOCTYPE svg PUBLIC "-//W3C//DTD SVG 1.1//EN" "http://www.w3.org/Graphics/SVG/1.1/DTD/svg11.dtd">
<svg version="1.1" id="Layer_1" xmlns="http://www.w3.org/2000/svg" xmlns:xlink="http://www.w3.org/1999/xlink" x="0px" y="0px"
	 width="256px" height="256px" viewBox="0 0 256 256" enable-background="new 0 0 256 256" xml:space="preserve">
<text transform="matrix(1 0 0 1 455.2729 318.3965)"><tspan x="0" y="0" fill="#FFFFFF" font-family="'Baskerville-Italic'" font-size="18">sed diam nonum</tspan><tspan x="126.772" y="0" fill="#FFFFFF" font-family="'Baskerville-Italic'" font-size="18">m</tspan><tspan x="141.929" y="0" fill="#FFFFFF" font-family="'Baskerville-Italic'" font-size="18">y nibh euismod tincidunt ut lao</tspan><tspan x="376.375" y="0" fill="#FFFFFF" font-family="'Baskerville-Italic'" font-size="18">r</tspan><tspan x="382.027" y="0" fill="#FFFFFF" font-family="'Baskerville-Italic'" font-size="18">eet </tspan></text>
<text transform="matrix(1 0 0 1 531.8989 338.3945)"><tspan x="0" y="0" fill="#FFFFFF" font-family="'Baskerville-Italic'" font-size="18">dolo</tspan><tspan x="34.164" y="0" fill="#FFFFFF" font-family="'Baskerville-Italic'" font-size="18">r</tspan><tspan x="39.87" y="0" fill="#FFFFFF" font-family="'Baskerville-Italic'" font-size="18">e m</tspan><tspan x="67.715" y="0" fill="#FFFFFF" font-family="'Baskerville-Italic'" font-size="18">a</tspan><tspan x="76.715" y="0" fill="#FFFFFF" font-family="'Baskerville-Italic'" font-size="18">gna aliquam e</tspan><tspan x="182.967" y="0" fill="#FFFFFF" font-family="'Baskerville-Italic'" font-size="18">r</tspan><tspan x="188.655" y="0" fill="#FFFFFF" font-family="'Baskerville-Italic'" font-size="18">at.</tspan></text>
<text transform="matrix(1 0 0 1 864.8271 298.3984)"><tspan x="0" y="0" fill="#FFFFFF" font-family="'Baskerville-Italic'" font-size="18">Lo</tspan><tspan x="18.377" y="0" fill="#FFFFFF" font-family="'Baskerville-Italic'" font-size="18">r</tspan><tspan x="24.083" y="0" fill="#FFFFFF" font-family="'Baskerville-Italic'" font-size="18">em ipsum dolor sit amet, consectetuer adipiscing elit, </tspan></text>
<text transform="matrix(1 0 0 1 873.269 318.3965)"><tspan x="0" y="0" fill="#FFFFFF" font-family="'Baskerville-Italic'" font-size="18">sed diam nonum</tspan><tspan x="126.772" y="0" fill="#FFFFFF" font-family="'Baskerville-Italic'" font-size="18">m</tspan><tspan x="141.929" y="0" fill="#FFFFFF" font-family="'Baskerville-Italic'" font-size="18">y nibh euismod tincidunt ut lao</tspan><tspan x="376.375" y="0" fill="#FFFFFF" font-family="'Baskerville-Italic'" font-size="18">r</tspan><tspan x="382.027" y="0" fill="#FFFFFF" font-family="'Baskerville-Italic'" font-size="18">eet </tspan></text>
<text transform="matrix(1 0 0 1 949.895 338.3945)"><tspan x="0" y="0" fill="#FFFFFF" font-family="'Baskerville-Italic'" font-size="18">dolo</tspan><tspan x="34.164" y="0" fill="#FFFFFF" font-family="'Baskerville-Italic'" font-size="18">r</tspan><tspan x="39.87" y="0" fill="#FFFFFF" font-family="'Baskerville-Italic'" font-size="18">e m</tspan><tspan x="67.715" y="0" fill="#FFFFFF" font-family="'Baskerville-Italic'" font-size="18">a</tspan><tspan x="76.715" y="0" fill="#FFFFFF" font-family="'Baskerville-Italic'" font-size="18">gna aliquam e</tspan><tspan x="182.967" y="0" fill="#FFFFFF" font-family="'Baskerville-Italic'" font-size="18">r</tspan><tspan x="188.656" y="0" fill="#FFFFFF" font-family="'Baskerville-Italic'" font-size="18">at.</tspan></text>
<text transform="matrix(1 0 0 1 1365.9111 338.3945)"><tspan x="0" y="0" fill="#FFFFFF" font-family="'Baskerville-Italic'" font-size="18">dolo</tspan><tspan x="34.164" y="0" fill="#FFFFFF" font-family="'Baskerville-Italic'" font-size="18">r</tspan><tspan x="39.869" y="0" fill="#FFFFFF" font-family="'Baskerville-Italic'" font-size="18">e m</tspan><tspan x="67.715" y="0" fill="#FFFFFF" font-family="'Baskerville-Italic'" font-size="18">a</tspan><tspan x="76.715" y="0" fill="#FFFFFF" font-family="'Baskerville-Italic'" font-size="18">gna aliquam e</tspan><tspan x="182.968" y="0" fill="#FFFFFF" font-family="'Baskerville-Italic'" font-size="18">r</tspan><tspan x="188.655" y="0" fill="#FFFFFF" font-family="'Baskerville-Italic'" font-size="18">at.</tspan></text>
<g>
	<path fill="#0096CB" d="M1422.066,478.72c-0.155,0-0.312-0.03-0.463-0.092c-0.449-0.187-0.743-0.627-0.743-1.115v-15.68
		c0-0.39,0.188-0.754,0.503-0.98c0.074-0.053,7.391-5.313,11.943-9.552c0.338-0.316,0.826-0.408,1.259-0.243
		c27.777,10.775,35.317,10.775,39.368,10.775c0.666,0,1.206,0.539,1.206,1.206v14.474c0,0.321-0.128,0.629-0.355,0.855
		c-0.226,0.226-0.532,0.352-0.851,0.352h-0.006c-0.229-0.001-23.119-0.107-38.307-0.107c-10.486,0-12.874,0.051-13.317,0.083
		C1422.225,478.712,1422.146,478.72,1422.066,478.72 M1435.621,476.199c13.184,0,32.162,0.08,37.105,0.103v-12.064
		c-4.496-0.076-13.154-0.937-38.334-10.658c-3.986,3.615-9.439,7.646-11.121,8.87v13.811
		C1425.048,476.199,1428.533,476.199,1435.621,476.199"/>
	<path fill="#0096CB" d="M1464.284,463.038c-0.667,0-1.207-0.54-1.207-1.206V445.73c-2.408-1.068-10.064-4.517-13.271-6.563
		c-7.436,4.875-18.352,7.317-21.709,7.984v11.063c0,0.667-0.541,1.206-1.207,1.206s-1.205-0.539-1.205-1.206v-12.063
		c0-0.587,0.422-1.088,1-1.188c0.142-0.024,14.232-2.519,22.434-8.244c0.426-0.298,0.996-0.289,1.414,0.024
		c2.751,2.063,14.119,7.046,14.234,7.098c0.438,0.191,0.723,0.625,0.723,1.104v16.887
		C1465.49,462.498,1464.95,463.038,1464.284,463.038"/>
	<path fill="#0096CB" d="M1434.129,444.945c-0.666,0-1.206-0.54-1.206-1.206v-14.475c0-0.57,0.397-1.063,0.956-1.181
		c0.109-0.021,10.991-2.35,19.058-5.951c0.394-0.179,0.852-0.129,1.199,0.125c3.071,2.226,5.798,3.484,5.825,3.497
		c0.429,0.197,0.704,0.626,0.704,1.098v15.681c0,0.666-0.54,1.206-1.206,1.206s-1.206-0.54-1.206-1.206v-14.928
		c-0.974-0.494-2.849-1.509-4.967-2.992c-6.863,2.965-15.158,4.982-17.951,5.62v13.506
		C1435.335,444.405,1434.795,444.945,1434.129,444.945"/>
	<path fill="#0096CB" d="M1473.934,469.069c-4.174,0-11.911,0.001-39.541-10.667c-4.661,4.23-11.33,9.025-11.623,9.234
		c-0.543,0.389-1.295,0.265-1.683-0.276c-0.389-0.542-0.265-1.295,0.276-1.684c0.074-0.052,7.391-5.313,11.943-9.551
		c0.339-0.317,0.826-0.408,1.259-0.243c27.777,10.774,35.317,10.774,39.368,10.774c0.666,0,1.206,0.54,1.206,1.206
		C1475.14,468.53,1474.6,469.069,1473.934,469.069"/>
	<path fill="#0096CB" d="M1473.934,473.895c-4.174,0-11.911,0.001-39.541-10.667c-4.661,4.229-11.33,9.025-11.623,9.235
		c-0.543,0.389-1.295,0.264-1.683-0.277c-0.389-0.542-0.265-1.295,0.276-1.684c0.074-0.053,7.391-5.313,11.943-9.552
		c0.339-0.315,0.826-0.407,1.259-0.243c27.777,10.774,35.317,10.774,39.368,10.774c0.666,0,1.206,0.54,1.206,1.207
		C1475.14,473.354,1474.6,473.895,1473.934,473.895"/>
	<path fill="#0096CB" d="M1473.934,478.719c-4.174,0-11.911,0.002-39.541-10.666c-4.661,4.229-11.33,9.024-11.623,9.234
		c-0.543,0.39-1.295,0.265-1.683-0.277c-0.389-0.542-0.265-1.294,0.276-1.683c0.074-0.053,7.391-5.313,11.943-9.552
		c0.339-0.317,0.826-0.408,1.259-0.243c27.777,10.775,35.317,10.775,39.368,10.775c0.666,0,1.206,0.539,1.206,1.206
		C1475.14,478.18,1474.6,478.719,1473.934,478.719"/>
	<path fill="#0096CB" d="M1450.439,478.598c-0.125,0-0.252-0.019-0.378-0.06c-4.584-1.511-9.853-3.415-15.669-5.66
		c-2.092,1.898-4.36,3.694-6.519,5.363c-0.526,0.406-1.284,0.31-1.691-0.216c-0.408-0.527-0.312-1.284,0.216-1.692
		c2.306-1.784,4.737-3.712,6.908-5.732c0.339-0.316,0.826-0.408,1.259-0.243c6.055,2.35,11.522,4.331,16.252,5.888
		c0.632,0.209,0.976,0.891,0.769,1.523C1451.418,478.276,1450.946,478.598,1450.439,478.598"/>
	<path fill="#0096CB" d="M1426.891,452.183c-0.576,0-1.086-0.414-1.188-1c-0.114-0.656,0.326-1.28,0.982-1.396
		c0.142-0.023,14.232-2.518,22.434-8.243c0.426-0.3,0.996-0.29,1.414,0.024c2.751,2.063,14.119,7.046,14.234,7.098
		c0.609,0.267,0.889,0.977,0.621,1.588c-0.268,0.61-0.979,0.89-1.589,0.621c-0.445-0.194-10.251-4.493-13.993-6.884
		c-8.688,5.696-22.127,8.072-22.71,8.174C1427.027,452.177,1426.959,452.183,1426.891,452.183"/>
	<path fill="#0096CB" d="M1464.283,455.801c-0.161,0-0.326-0.031-0.483-0.101c-0.445-0.194-10.251-4.494-13.995-6.884
		c-3.138,2.058-7.25,3.912-12.242,5.517c-0.636,0.2-1.313-0.144-1.518-0.777c-0.204-0.636,0.145-1.315,0.779-1.52
		c5.139-1.652,9.273-3.559,12.295-5.668c0.426-0.299,0.996-0.29,1.414,0.025c2.751,2.062,14.119,7.046,14.234,7.097
		c0.609,0.268,0.889,0.978,0.621,1.588C1465.19,455.531,1464.748,455.801,1464.283,455.801"/>
	<path fill="#0096CB" d="M1464.283,460.626c-0.161,0-0.326-0.031-0.483-0.102c-0.445-0.194-10.251-4.493-13.995-6.883
		c-1.593,1.045-3.457,2.045-5.547,2.98c-0.609,0.267-1.321,0-1.593-0.608c-0.272-0.608,0-1.322,0.607-1.594
		c2.264-1.014,4.231-2.099,5.847-3.227c0.426-0.298,0.996-0.291,1.414,0.024c2.751,2.063,14.119,7.047,14.234,7.097
		c0.609,0.268,0.889,0.979,0.621,1.588C1465.19,460.356,1464.748,460.626,1464.283,460.626"/>
	<path fill="#0096CB" d="M1434.128,435.296c-0.56,0-1.06-0.389-1.179-0.957c-0.139-0.651,0.277-1.292,0.93-1.43
		c0.109-0.022,10.991-2.351,19.058-5.952c0.394-0.177,0.852-0.127,1.199,0.125c3.071,2.226,5.798,3.485,5.825,3.499
		c0.605,0.276,0.871,0.993,0.595,1.598c-0.278,0.606-0.992,0.872-1.598,0.595c-0.113-0.051-2.642-1.216-5.672-3.336
		c-8.209,3.545-18.464,5.738-18.908,5.832C1434.294,435.288,1434.21,435.296,1434.128,435.296"/>
	<path fill="#0096CB" d="M1434.128,440.121c-0.56,0-1.06-0.39-1.179-0.957c-0.139-0.651,0.277-1.292,0.93-1.43
		c0.109-0.022,10.991-2.35,19.058-5.953c0.394-0.178,0.852-0.128,1.199,0.125c3.071,2.228,5.798,3.486,5.825,3.499
		c0.605,0.277,0.871,0.993,0.595,1.599c-0.278,0.605-0.992,0.873-1.598,0.595c-0.113-0.051-2.642-1.216-5.672-3.336
		c-8.209,3.545-18.464,5.738-18.908,5.832C1434.294,440.112,1434.21,440.121,1434.128,440.121"/>
	<path fill="#0096CB" d="M1459.458,442.533c-0.168,0-0.338-0.036-0.5-0.11c-0.111-0.05-2.562-1.178-5.526-3.233
		c-0.574,0.357-1.347,0.719-2.088,0.678c-0.665-0.041-1.171-0.612-1.13-1.278c0.041-0.664,0.601-1.158,1.278-1.13
		c0.186-0.017,0.765-0.348,1.165-0.679c0.425-0.35,1.034-0.372,1.479-0.049c3.071,2.227,5.798,3.485,5.825,3.499
		c0.605,0.276,0.871,0.993,0.595,1.598C1460.353,442.271,1459.915,442.533,1459.458,442.533"/>
</g>
<g>
	<path fill="#0096CB" d="M112.526-192.627c-30.665,0-52.091-36.752-57.273-51.864c-0.26-0.163-0.529-0.331-0.798-0.499
		c-2.024-1.25-3.355-2.081-4.255-3.671c-7.399-13.095-9.348-23.587-5.79-31.192c1.675-3.596,4.202-5.794,6.447-7.117
		c0-5.675,0.432-16.351,3.17-26.727c0.119-0.421,11.122-39.235,58.499-39.235c47.36,0,58.367,38.814,58.473,39.213
		c2.756,10.385,3.179,21.07,3.179,26.75c2.245,1.327,4.767,3.521,6.451,7.117c3.559,7.609,1.61,18.097-5.79,31.183
		c-0.882,1.585-2.231,2.421-4.264,3.684c-0.273,0.167-0.538,0.335-0.794,0.494C164.618-229.384,143.2-192.627,112.526-192.627
		 M59.747-255.362c0.255,0.164,0.546,0.335,0.833,0.514c2.531,1.572,4.524,2.818,5.261,5.352
		c2.76,9.586,21.448,45.265,46.685,45.265c25.241,0,43.916-35.679,46.664-45.259c0.741-2.54,2.738-3.781,5.256-5.351
		c0.295-0.181,0.573-0.357,0.842-0.516c6.698-12.232,5.666-17.656,4.89-19.449c-0.921-2.108-2.857-2.637-3.078-2.686
		c-2.716-0.655-4.749-3.202-4.595-5.997c0.004-0.139,0.719-14.274-2.721-27.243c-0.335-1.199-9-30.597-47.259-30.597
		c-38.276,0-46.941,29.397-47.29,30.652c-3.417,12.914-2.712,27.053-2.699,27.192c0.154,2.913-1.878,5.494-4.753,6.019
		c-0.071,0.022-2.006,0.551-2.924,2.659C54.081-273.014,53.048-267.585,59.747-255.362"/>
	<path fill="#0096CB" d="M112.522-96.933C43.1-96.933-7.161-107.58-7.664-107.688c-2.773-0.597-4.709-3.113-4.573-5.953
		c2.632-55.454,37.187-72.685,62.948-80.814c19.747-6.231,30.396-16.495,30.506-16.594c2.275-2.24,5.944-2.209,8.198,0.073
		c2.24,2.28,2.227,5.933-0.044,8.182c-0.502,0.5-12.563,12.272-35.171,19.407c-24.928,7.871-50.667,21.841-54.508,65.303
		c14.076,2.593,57.105,9.547,112.831,9.547c55.716,0,98.755-6.954,112.826-9.547c-3.845-43.462-29.584-57.432-54.508-65.308
		c-22.604-7.13-34.669-18.902-35.176-19.398c-2.271-2.253-2.293-5.933-0.04-8.21c2.262-2.275,5.917-2.298,8.202-0.044
		c0.247,0.234,10.887,10.405,30.506,16.585c25.757,8.138,60.307,25.365,62.948,80.818c0.137,2.84-1.808,5.356-4.573,5.953
		C232.206-107.58,181.935-96.933,112.522-96.933"/>
	<path fill="#0096CB" d="M114.454-149.038c-19.319,0-38.638-7.355-53.344-22.064c-4.595-4.592-8.572-9.743-11.827-15.301
		c-1.614-2.77-0.688-6.328,2.077-7.944c2.769-1.621,6.319-0.69,7.941,2.082c2.752,4.709,6.121,9.068,10.015,12.96
		c24.888,24.891,65.382,24.891,90.275,0c3.073-3.071,5.825-6.447,8.188-10.027c1.769-2.679,5.367-3.416,8.035-1.658
		c2.681,1.766,3.417,5.36,1.658,8.037c-2.795,4.244-6.05,8.229-9.675,11.853C153.091-156.393,133.772-149.038,114.454-149.038"/>
	<path fill="#0096CB" d="M114.454-102.579c-3.206,0-5.803-2.598-5.803-5.803v-46.423c0-3.206,2.597-5.803,5.803-5.803
		c3.206,0,5.803,2.597,5.803,5.803v46.423C120.257-105.177,117.659-102.579,114.454-102.579"/>
	<path fill="#0096CB" d="M97.044-125.79c-1.508,0-3.021-0.642-4.119-1.685c-1.054-1.107-1.685-2.615-1.685-4.119
		c0-1.508,0.631-3.021,1.685-4.123c2.205-2.143,6.033-2.143,8.237,0c1.045,1.103,1.685,2.615,1.685,4.123
		c0,1.504-0.64,3.012-1.685,4.119C100.06-126.431,98.552-125.79,97.044-125.79"/>
</g>
<g>
	<path fill="#0096CB" d="M-188.206,165.722c-42.417,0-85.438-17.586-112.284-45.882c-1.707-1.803-2.099-4.485-0.957-6.694
		c6.725-13.105,25.92-37.976,55.117-48.026c17.008-5.856,21.55-7.854,22.767-11.535c-2.302-0.137-4.97-0.155-7.594-0.168
		c-11.933-0.071-26.785-0.154-34.246-10.107c-8.775-11.698-2.143-21.867,4.273-31.705c1.5-2.295,3.087-4.725,4.599-7.338
		c11.324-19.521,12.118-27.545,13.115-37.709l0.22-2.25c3.4-33.044,22.82-52.426,54.689-54.574c0.26-0.016,0.521-0.016,0.785,0
		c31.86,2.147,51.281,21.53,54.68,54.569l0.221,2.254c1.001,10.164,1.786,18.188,13.115,37.709c1.517,2.613,3.104,5.042,4.608,7.347
		c6.107,9.373,13.043,19.998,4.268,31.696c-7.465,9.953-22.313,10.037-34.241,10.107c-2.627,0.013-5.3,0.031-7.602,0.168
		c1.217,3.682,5.759,5.679,22.763,11.535c29.077,10.006,48.286,34.81,55.05,47.885c1.151,2.213,0.767,4.903-0.939,6.707
		C-102.657,148.092-145.727,165.722-188.206,165.722 M-288.998,114.843c24.597,23.914,63.627,39.189,100.792,39.189
		c37.218,0,76.292-15.315,100.902-39.295c-7.117-11.584-23.397-30.651-46.407-38.567c-27.018-9.3-31.088-12.907-31.088-27.556
		c0-2.593,1.707-4.873,4.194-5.605c4.132-1.212,9.383-1.248,15.465-1.279c9.348-0.058,20.981-0.124,24.963-5.428
		c3.567-4.761,1.768-8.372-4.714-18.307c-1.605-2.46-3.298-5.069-4.93-7.864c-12.59-21.72-13.538-31.315-14.627-42.433l-0.225-2.205
		c-2.809-27.349-17.427-42.183-43.44-44.071c-26.022,1.888-40.635,16.722-43.449,44.075l-0.225,2.2
		c-1.089,11.117-2.038,20.712-14.631,42.433c-1.627,2.795-3.316,5.399-4.926,7.855c-6.482,9.944-8.272,13.555-4.714,18.316
		c3.986,5.305,15.619,5.371,24.967,5.428c6.077,0.031,11.329,0.066,15.461,1.279c2.487,0.732,4.193,3.012,4.193,5.605
		c0,14.649-4.07,18.256-31.088,27.556C-265.635,84.125-281.916,103.241-288.998,114.843"/>
	<path fill="#0096CB" d="M-158.242,161.89c-0.185,0-0.383-0.009-0.577-0.026c-3.211-0.317-5.557-3.174-5.244-6.385
		c4.462-45.402,28.328-84.163,29.342-85.786c1.702-2.743,5.292-3.589,8.048-1.874c2.738,1.697,3.576,5.305,1.878,8.047
		c-0.238,0.375-23.451,38.144-27.635,80.755C-152.729,159.637-155.27,161.89-158.242,161.89"/>
	<path fill="#0096CB" d="M-217.415,161.89c-2.977,0-5.517-2.253-5.812-5.269c-4.203-42.708-27.397-80.38-27.631-80.755
		c-1.706-2.743-0.869-6.341,1.875-8.047c2.729-1.707,6.341-0.873,8.047,1.874c1.015,1.623,24.879,40.384,29.342,85.786
		c0.309,3.211-2.033,6.068-5.248,6.385C-217.036,161.881-217.226,161.89-217.415,161.89"/>
</g>
<g>
	<path fill="#0096CB" d="M64,178.089c-27.619,0-50.092-22.468-50.092-50.087c0-27.619,22.473-50.091,50.092-50.091
		c27.615,0,50.087,22.473,50.087,50.091C114.087,155.622,91.615,178.089,64,178.089 M64,89.046
		c-21.48,0-38.957,17.476-38.957,38.956S42.52,166.959,64,166.959s38.957-17.477,38.957-38.957S85.48,89.046,64,89.046"/>
	<path fill="#0096CB" d="M192,178.089c-27.619,0-50.087-22.468-50.087-50.087c0-27.619,22.468-50.091,50.087-50.091
		s50.087,22.473,50.087,50.091C242.087,155.622,219.619,178.089,192,178.089 M192,89.046c-21.48,0-38.957,17.476-38.957,38.956
		S170.52,166.959,192,166.959s38.957-17.477,38.957-38.957S213.48,89.046,192,89.046"/>
	<path fill="#0096CB" d="M147.479,130.785c-3.074,0-5.561-2.487-5.561-5.565c0-7.674-6.249-13.914-13.913-13.914
		c-7.677,0-13.917,6.24-13.917,13.914c0,3.078-2.492,5.565-5.565,5.565s-5.565-2.487-5.565-5.565
		c0-13.813,11.232-25.049,25.048-25.049c13.807,0,25.039,11.236,25.039,25.049C153.043,128.298,150.556,130.785,147.479,130.785"/>
	<path fill="#0096CB" d="M16.691,130.785H5.561c-3.074,0-5.561-2.487-5.561-5.565c0-3.079,2.487-5.565,5.561-5.565h11.13
		c3.078,0,5.565,2.487,5.565,5.565C22.256,128.298,19.77,130.785,16.691,130.785"/>
	<path fill="#0096CB" d="M250.439,130.785h-11.135c-3.074,0-5.561-2.487-5.561-5.565c0-3.079,2.487-5.565,5.561-5.565h11.135
		c3.074,0,5.561,2.487,5.561,5.565C256,128.298,253.513,130.785,250.439,130.785"/>
</g>
<g>
	<path fill="#0096CB" d="M-176.87,468.1l-24.167-23.301c-2.122-2.039-2.181-5.412-0.135-7.535c2.048-2.117,5.422-2.182,7.541-0.135
		l17.01,16.395l18.386-16.527c2.185-1.969,5.554-1.792,7.527,0.403c1.978,2.19,1.792,5.563-0.393,7.532L-176.87,468.1z"/>
	<path fill="#0096CB" d="M-49.483,391.48c-1.459,0-2.915-0.596-3.964-1.771l-23.173-25.765l23.296-24.167
		c2.05-2.117,5.424-2.176,7.541-0.135c2.125,2.04,2.183,5.417,0.137,7.536l-16.399,17.019l16.523,18.381
		c1.976,2.194,1.791,5.563-0.393,7.533C-46.939,391.027-48.218,391.48-49.483,391.48"/>
	<path fill="#0096CB" d="M5.333,496.661c-1.46,0-2.915-0.596-3.96-1.771c-1.98-2.186-1.794-5.563,0.393-7.531l25.77-23.164
		L51.7,487.49c2.122,2.045,2.183,5.418,0.137,7.541c-2.046,2.117-5.415,2.19-7.541,0.135l-17.013-16.399L8.9,495.292
		C7.877,496.209,6.603,496.661,5.333,496.661"/>
	<path fill="#0096CB" d="M-101.334,594.146c-1.332,0-2.664-0.491-3.702-1.495c-2.123-2.042-2.183-5.418-0.137-7.535l16.399-17.024
		l-16.525-18.377c-1.973-2.196-1.788-5.563,0.397-7.534c2.185-1.971,5.563-1.79,7.532,0.404l23.17,25.766l-23.296,24.162
		C-98.543,593.599-99.939,594.146-101.334,594.146"/>
	<path fill="#0096CB" d="M-174.61,455.479c-0.275,0-0.56-0.018-0.844-0.063c-2.908-0.466-4.891-3.197-4.425-6.11
		c7.248-45.606,42.763-81.12,88.372-88.376c2.959-0.452,5.641,1.521,6.105,4.43c0.461,2.908-1.521,5.644-4.43,6.105
		c-41.036,6.528-72.993,38.485-79.517,79.517C-169.763,453.609-172.032,455.479-174.61,455.479"/>
	<path fill="#0096CB" d="M25.274,455.479c-2.576,0-4.842-1.87-5.261-4.498c-6.521-41.032-38.479-72.989-79.515-79.517
		c-2.911-0.461-4.891-3.197-4.432-6.105c0.467-2.909,3.157-4.877,6.108-4.43c45.609,7.256,81.124,42.77,88.369,88.376
		c0.468,2.913-1.517,5.645-4.423,6.11C25.833,455.462,25.556,455.479,25.274,455.479"/>
	<path fill="#0096CB" d="M-58.673,571.429c-2.576,0-4.847-1.869-5.261-4.497c-0.463-2.908,1.521-5.641,4.428-6.105
		c41.041-6.524,72.998-38.485,79.519-79.518c0.458-2.908,3.162-4.881,6.107-4.43c2.902,0.461,4.891,3.193,4.423,6.105
		c-7.245,45.605-42.76,81.12-88.369,88.381C-58.113,571.412-58.396,571.429-58.673,571.429"/>
	<path fill="#0096CB" d="M-90.663,571.429c-0.275,0-0.56-0.017-0.845-0.063c-45.611-7.261-81.124-42.775-88.372-88.381
		c-0.465-2.912,1.521-5.645,4.425-6.105c2.952-0.461,5.64,1.521,6.105,4.43c6.524,41.032,38.481,72.993,79.521,79.518
		c2.904,0.465,4.891,3.197,4.425,6.105C-85.819,569.56-88.085,571.429-90.663,571.429"/>
</g>
<g>
	<path fill="#0096CB" d="M1046.79,468.558c-5.796,0-10.655-1.027-15.354-2.02c-3.297-0.697-6.412-1.355-9.613-1.597
		c-5.232-0.395-10.052-0.79-12.746-1.015c-1.943-0.162-3.479-1.629-3.735-3.568c-0.627-4.736-0.927-13.661,4.092-20.215
		c0.391-0.512,1.119-0.625,1.648-0.252c0.03,0.021,3.328,2.277,8.25,2.277c2.933,0,5.867-0.79,8.718-2.35
		c0.55-0.301,1.235-0.128,1.579,0.392c0.056,0.083,5.646,8.338,15.566,10.315c2.867,0.572,5.156,0.929,6.995,1.215
		c5.012,0.781,7.299,1.138,8.831,4.247c1.992,4.045-1.064,9.342-1.195,9.565c-0.352,0.532-2.438,2.899-12.549,3.002L1046.79,468.558
		z M1010.728,442.475c-3.989,6.028-3.444,14.216-3,17.569c0.106,0.806,0.743,1.417,1.548,1.483
		c2.693,0.226,7.503,0.619,12.728,1.015c3.361,0.254,6.552,0.928,9.93,1.641c4.578,0.968,9.313,1.968,14.856,1.968l0.462-0.003
		c8.114-0.081,10.257-1.654,10.552-1.91c0.364-0.672,2.355-4.551,1.057-7.185c-0.946-1.922-2.038-2.153-7.041-2.934
		c-1.862-0.291-4.179-0.65-7.095-1.232c-9.029-1.8-14.643-8.115-16.461-10.467c-2.916,1.43-5.917,2.155-8.932,2.155
		C1015.294,444.575,1012.232,443.276,1010.728,442.475"/>
	<path fill="#0096CB" d="M1009.371,466.147c-0.665,0-1.204-0.538-1.204-1.202v-1.204c0-0.664,0.539-1.203,1.204-1.203
		s1.204,0.539,1.204,1.203v1.204C1010.575,465.609,1010.036,466.147,1009.371,466.147"/>
	<path fill="#0096CB" d="M1012.981,466.147c-0.665,0-1.204-0.538-1.204-1.202v-1.204c0-0.664,0.539-1.203,1.204-1.203
		s1.204,0.539,1.204,1.203v1.204C1014.186,465.609,1013.646,466.147,1012.981,466.147"/>
	<path fill="#0096CB" d="M1017.795,466.147c-0.665,0-1.203-0.538-1.203-1.202v-1.204c0-0.664,0.538-1.203,1.203-1.203
		c0.666,0,1.204,0.539,1.204,1.203v1.204C1018.999,465.609,1018.461,466.147,1017.795,466.147"/>
	<path fill="#0096CB" d="M1053.898,469.758c-0.665,0-1.203-0.538-1.203-1.202v-1.204c0-0.664,0.538-1.203,1.203-1.203
		s1.203,0.539,1.203,1.203v1.204C1055.102,469.22,1054.563,469.758,1053.898,469.758"/>
	<path fill="#0096CB" d="M1050.288,469.758c-0.665,0-1.203-0.538-1.203-1.202v-1.204c0-0.664,0.538-1.203,1.203-1.203
		s1.203,0.539,1.203,1.203v1.204C1051.491,469.22,1050.953,469.758,1050.288,469.758"/>
	<path fill="#0096CB" d="M1046.678,469.758c-0.665,0-1.203-0.538-1.203-1.202v-1.204c0-0.664,0.538-1.203,1.203-1.203
		s1.203,0.539,1.203,1.203v1.204C1047.881,469.22,1047.343,469.758,1046.678,469.758"/>
	<path fill="#0096CB" d="M1043.067,469.758c-0.665,0-1.203-0.538-1.203-1.202v-1.204c0-0.664,0.538-1.203,1.203-1.203
		s1.203,0.539,1.203,1.203v1.204C1044.271,469.22,1043.732,469.758,1043.067,469.758"/>
	<path fill="#0096CB" d="M1038.254,469.758c-0.665,0-1.203-0.538-1.203-1.202v-1.204c0-0.664,0.538-1.203,1.203-1.203
		s1.203,0.539,1.203,1.203v1.204C1039.457,469.22,1038.919,469.758,1038.254,469.758"/>
	<path fill="#0096CB" d="M1027.424,452.91c-0.083,0-0.167-0.008-0.251-0.026c-0.65-0.139-1.065-0.777-0.928-1.428
		c0.942-4.424,5.249-6.735,5.431-6.832c0.588-0.308,1.315-0.084,1.625,0.505c0.31,0.588,0.085,1.314-0.502,1.624
		c-0.033,0.02-3.496,1.898-4.199,5.204C1028.479,452.523,1027.98,452.91,1027.424,452.91"/>
	<path fill="#0096CB" d="M1032.238,455.316c-0.047,0-0.095-0.002-0.145-0.008c-0.659-0.079-1.13-0.678-1.052-1.338
		c0.399-3.334,3.834-6.611,3.979-6.75c0.483-0.457,1.245-0.434,1.699,0.049c0.457,0.482,0.437,1.244-0.046,1.701
		c-0.818,0.776-2.998,3.24-3.242,5.285C1033.358,454.868,1032.839,455.316,1032.238,455.316"/>
	<path fill="#0096CB" d="M1037.049,456.521c-0.643,0-1.176-0.509-1.201-1.158c-0.159-4.185,2.917-5.854,3.049-5.924
		c0.587-0.309,1.316-0.085,1.626,0.504c0.308,0.584,0.087,1.308-0.495,1.62c-0.097,0.055-1.875,1.093-1.774,3.709
		c0.024,0.664-0.493,1.249-1.157,1.249H1037.049z"/>
	<path fill="#0096CB" d="M1041.864,457.725c-0.519,0-0.997-0.337-1.153-0.859c-0.955-3.194,1.357-5.847,1.457-5.959
		c0.441-0.496,1.201-0.542,1.699-0.099c0.495,0.44,0.541,1.198,0.104,1.694c-0.034,0.039-1.518,1.791-0.955,3.674
		c0.19,0.637-0.171,1.307-0.807,1.498C1042.095,457.708,1041.978,457.725,1041.864,457.725"/>
	<path fill="#0096CB" d="M1028.408,442.047c-0.103,0-0.205-0.012-0.307-0.038c-4.969-1.307-13.728-2.855-16.076-1.456
		c-0.275,0.162-0.307,0.292-0.319,0.341c-0.158,0.646-0.809,1.04-1.456,0.882c-0.645-0.158-1.04-0.811-0.882-1.456
		c0.13-0.527,0.482-1.274,1.427-1.836c3.978-2.369,16.502,0.824,17.917,1.196c0.643,0.17,1.028,0.828,0.858,1.471
		C1029.429,441.69,1028.94,442.047,1028.408,442.047"/>
	<path fill="#0096CB" d="M1035.285,449.242c-0.209,0-0.42-0.054-0.609-0.165c-0.232-0.136-0.406-0.342-0.504-0.581
		c-0.028-0.046-0.053-0.095-0.074-0.146c-0.17-0.401-4.103-9.888,0.084-15.208c2.088-2.654,4.657-2.563,6.279-1.297
		c2.329,1.819,3.099,6.029,0.282,9.658c-0.774,0.999-1.413,1.873-1.936,2.634c2.776-1.559,6.358-2.845,9.143-1.349
		c0.587,0.313,0.808,1.043,0.494,1.629c-0.313,0.585-1.045,0.807-1.629,0.492c-3.022-1.615-8.92,2.481-10.748,4.044
		C1035.845,449.145,1035.566,449.242,1035.285,449.242 M1038.021,433.382c-0.815,0-1.529,0.719-1.947,1.248
		c-2.176,2.766-1.4,7.386-0.604,10.25c0.705-1.192,1.77-2.786,3.373-4.853c2.015-2.597,1.375-5.32,0.137-6.287
		C1038.652,433.485,1038.329,433.382,1038.021,433.382"/>
	<path fill="#0096CB" d="M1010.404,441.872c-0.57,0-1.076-0.406-1.182-0.986c-0.007-0.027-0.578-2.812-2.053-2.617
		c-0.664,0.093-1.268-0.366-1.359-1.024c-0.092-0.658,0.367-1.267,1.025-1.358c3.034-0.422,4.438,2.803,4.755,4.569
		c0.118,0.654-0.317,1.28-0.971,1.398C1010.547,441.866,1010.475,441.872,1010.404,441.872"/>
</g>
<rect x="349.5" fill="none" width="1366" height="768"/>
<line fill="none" stroke="#FFFFFF" stroke-width="0.75" stroke-miterlimit="10" x1="1242" y1="138" x2="1242" y2="630"/>
<line fill="none" stroke="#FFFFFF" stroke-width="0.75" stroke-miterlimit="10" x1="406" y1="383.5" x2="1659" y2="383.5"/>
<rect x="349.5" fill="none" width="1366" height="768"/>
</svg>
