<?xml version="1.0" encoding="utf-8"?>
<!-- Generator: Adobe Illustrator 16.0.0, SVG Export Plug-In . SVG Version: 6.00 Build 0)  -->
<!DOCTYPE svg PUBLIC "-//W3C//DTD SVG 1.1//EN" "http://www.w3.org/Graphics/SVG/1.1/DTD/svg11.dtd">
<svg version="1.1" id="Layer_1" xmlns="http://www.w3.org/2000/svg" xmlns:xlink="http://www.w3.org/1999/xlink" x="0px" y="0px"
	 width="256px" height="256px" viewBox="0 0 256 256" enable-background="new 0 0 256 256" xml:space="preserve">
<g>
	<path fill="#0096CB" d="M188.705,210.117c-26.172,0-48.115-4.639-69.335-9.12c-14.887-3.148-28.955-6.121-43.41-7.21
		c-23.623-1.781-45.39-3.567-57.552-4.582c-8.776-0.732-15.712-7.355-16.868-16.113c-2.831-21.388-4.185-61.688,18.477-91.283
		c1.764-2.311,5.054-2.822,7.444-1.138c0.132,0.097,15.024,10.284,37.253,10.284c13.243,0,26.49-3.567,39.366-10.61
		c2.483-1.358,5.574-0.578,7.131,1.769c0.251,0.375,25.493,37.65,70.287,46.58c12.947,2.584,23.284,4.194,31.587,5.486
		c22.631,3.528,32.958,5.138,39.877,19.178c8.996,18.265-4.807,42.184-5.397,43.194c-1.587,2.403-11.007,13.092-56.666,13.556
		L188.705,210.117z M25.86,92.336c-18.014,27.222-15.553,64.193-13.547,79.336c0.481,3.638,3.356,6.398,6.99,6.698
		c12.162,1.019,33.88,2.796,57.477,4.582c15.174,1.147,29.585,4.189,44.838,7.409c20.673,4.37,42.052,8.886,67.086,8.886
		l2.086-0.013c36.641-0.366,46.316-7.47,47.647-8.625c1.645-3.034,10.636-20.55,4.771-32.443
		c-4.273-8.678-9.203-9.724-31.794-13.247c-8.41-1.314-18.87-2.937-32.037-5.565c-40.772-8.127-66.12-36.645-74.331-47.264
		c-13.167,6.456-26.719,9.732-40.332,9.732C46.485,101.821,32.656,95.957,25.86,92.336"/>
	<path fill="#0096CB" d="M19.735,199.233c-3.003,0-5.438-2.43-5.438-5.429v-5.437c0-2.999,2.435-5.433,5.438-5.433
		s5.437,2.435,5.437,5.433v5.437C25.172,196.804,22.738,199.233,19.735,199.233"/>
	<path fill="#0096CB" d="M36.038,199.233c-3.003,0-5.437-2.43-5.437-5.429v-5.437c0-2.999,2.434-5.433,5.437-5.433
		c3.003,0,5.438,2.435,5.438,5.433v5.437C41.476,196.804,39.042,199.233,36.038,199.233"/>
	<path fill="#0096CB" d="M57.774,199.233c-3.003,0-5.433-2.43-5.433-5.429v-5.437c0-2.999,2.43-5.433,5.433-5.433
		c3.007,0,5.438,2.435,5.438,5.433v5.437C63.211,196.804,60.781,199.233,57.774,199.233"/>
	<path fill="#0096CB" d="M220.803,215.536c-3.003,0-5.433-2.43-5.433-5.428v-5.438c0-2.999,2.43-5.433,5.433-5.433
		c3.003,0,5.433,2.434,5.433,5.433v5.438C226.236,213.106,223.807,215.536,220.803,215.536"/>
	<path fill="#0096CB" d="M204.5,215.536c-3.003,0-5.433-2.43-5.433-5.428v-5.438c0-2.999,2.43-5.433,5.433-5.433
		s5.433,2.434,5.433,5.433v5.438C209.933,213.106,207.503,215.536,204.5,215.536"/>
	<path fill="#0096CB" d="M188.197,215.536c-3.003,0-5.433-2.43-5.433-5.428v-5.438c0-2.999,2.43-5.433,5.433-5.433
		c3.003,0,5.433,2.434,5.433,5.433v5.438C193.63,213.106,191.201,215.536,188.197,215.536"/>
	<path fill="#0096CB" d="M171.895,215.536c-3.003,0-5.433-2.43-5.433-5.428v-5.438c0-2.999,2.43-5.433,5.433-5.433
		s5.433,2.434,5.433,5.433v5.438C177.328,213.106,174.897,215.536,171.895,215.536"/>
	<path fill="#0096CB" d="M150.159,215.536c-3.003,0-5.433-2.43-5.433-5.428v-5.438c0-2.999,2.43-5.433,5.433-5.433
		c3.003,0,5.433,2.434,5.433,5.433v5.438C155.592,213.106,153.162,215.536,150.159,215.536"/>
	<path fill="#0096CB" d="M101.254,139.459c-0.375,0-0.754-0.036-1.133-0.119c-2.933-0.626-4.807-3.51-4.189-6.447
		c4.251-19.976,23.703-30.414,24.523-30.851c2.655-1.389,5.94-0.379,7.338,2.28c1.398,2.655,0.384,5.936-2.267,7.333
		c-0.15,0.088-15.787,8.572-18.962,23.5C106.021,137.712,103.768,139.459,101.254,139.459"/>
	<path fill="#0096CB" d="M122.995,150.324c-0.211,0-0.432-0.009-0.657-0.035c-2.977-0.357-5.102-3.06-4.749-6.041
		c1.803-15.055,17.313-29.854,17.97-30.48c2.183-2.064,5.623-1.958,7.673,0.22c2.064,2.179,1.971,5.618-0.207,7.682
		c-3.695,3.506-13.538,14.631-14.641,23.866C128.053,148.3,125.707,150.324,122.995,150.324"/>
	<path fill="#0096CB" d="M144.717,155.762c-2.902,0-5.31-2.297-5.424-5.23c-0.719-18.896,13.172-26.437,13.768-26.75
		c2.65-1.394,5.944-0.384,7.342,2.275c1.389,2.637,0.392,5.904-2.236,7.315c-0.437,0.247-8.467,4.935-8.013,16.749
		c0.11,2.999-2.227,5.64-5.226,5.64H144.717z"/>
	<path fill="#0096CB" d="M166.462,161.199c-2.342,0-4.502-1.521-5.208-3.881c-4.313-14.424,6.129-26.401,6.579-26.908
		c1.993-2.24,5.424-2.448,7.673-0.446c2.236,1.989,2.443,5.411,0.472,7.651c-0.154,0.176-6.853,8.087-4.313,16.589
		c0.86,2.875-0.771,5.9-3.642,6.765C167.502,161.124,166.973,161.199,166.462,161.199"/>
	<path fill="#0096CB" d="M105.699,90.404c-0.467,0-0.926-0.053-1.389-0.172c-22.437-5.9-61.988-12.894-72.594-6.575
		c-1.239,0.732-1.385,1.318-1.438,1.539c-0.715,2.915-3.656,4.697-6.575,3.982c-2.915-0.714-4.696-3.66-3.982-6.575
		c0.586-2.381,2.174-5.755,6.442-8.291c17.961-10.698,74.517,3.722,80.906,5.402c2.902,0.767,4.644,3.739,3.876,6.641
		C110.308,88.795,108.103,90.404,105.699,90.404"/>
	<path fill="#0096CB" d="M136.753,122.896c-0.943,0-1.896-0.242-2.751-0.745c-1.05-0.613-1.834-1.543-2.275-2.624
		c-0.128-0.207-0.238-0.428-0.335-0.661c-0.767-1.813-18.525-44.649,0.379-68.673c9.428-11.986,21.03-11.576,28.355-5.856
		c10.517,8.215,13.992,27.226,1.274,43.613c-3.497,4.511-6.381,8.458-8.74,11.893c12.537-7.038,28.712-12.846,41.284-6.09
		c2.65,1.416,3.647,4.709,2.231,7.355c-1.416,2.642-4.718,3.643-7.355,2.223c-13.648-7.294-40.279,11.205-48.534,18.261
		C139.28,122.455,138.023,122.896,136.753,122.896 M149.105,51.276c-3.682,0-6.906,3.246-8.793,5.636
		c-9.825,12.489-6.323,33.351-2.729,46.285c3.184-5.384,7.991-12.581,15.231-21.912c9.098-11.726,6.209-24.024,0.617-28.39
		C151.958,51.744,150.499,51.276,149.105,51.276"/>
	<path fill="#0096CB" d="M24.401,89.615c-2.575,0-4.859-1.834-5.34-4.454c-0.031-0.124-2.61-12.696-9.27-11.818
		c-2.999,0.419-5.724-1.653-6.138-4.625s1.658-5.72,4.63-6.134c13.701-1.905,20.042,12.656,21.471,20.634
		c0.534,2.954-1.429,5.781-4.383,6.314C25.045,89.589,24.718,89.615,24.401,89.615"/>
</g>
</svg>
