<?xml version="1.0" encoding="utf-8"?>
<!-- Generator: Adobe Illustrator 16.0.0, SVG Export Plug-In . SVG Version: 6.00 Build 0)  -->
<!DOCTYPE svg PUBLIC "-//W3C//DTD SVG 1.1//EN" "http://www.w3.org/Graphics/SVG/1.1/DTD/svg11.dtd">
<svg version="1.1" id="Layer_1" xmlns="http://www.w3.org/2000/svg" xmlns:xlink="http://www.w3.org/1999/xlink" x="0px" y="0px"
	 width="256px" height="256px" viewBox="0 0 256 256" enable-background="new 0 0 256 256" xml:space="preserve">
<g>
	<path fill="#0098CE" d="M256,128c0,70.692-57.309,128-128,128S0,198.692,0,128S57.309,0,128,0S256,57.308,256,128"/>
	<path fill="#FFFFFF" d="M90.538,191.998c-8.608,0-15.61-7.003-15.61-15.611c0-8.603,7.002-15.604,15.61-15.604
		c8.605,0,15.61,7.002,15.61,15.604C106.147,184.995,99.143,191.998,90.538,191.998 M90.538,167.025
		c-5.166,0-9.366,4.198-9.366,9.361c0,5.169,4.2,9.371,9.366,9.371c5.164,0,9.364-4.202,9.364-9.371
		C99.901,171.224,95.701,167.025,90.538,167.025"/>
	<path fill="#FFFFFF" d="M165.462,191.998c-8.605,0-15.608-7.003-15.608-15.611c0-8.603,7.002-15.604,15.608-15.604
		c8.61,0,15.61,7.002,15.61,15.604C181.073,184.995,174.073,191.998,165.462,191.998 M165.462,167.025
		c-5.164,0-9.364,4.198-9.364,9.361c0,5.169,4.2,9.371,9.364,9.371c5.166,0,9.364-4.202,9.364-9.371
		C174.827,171.224,170.628,167.025,165.462,167.025"/>
	<path fill="#FFFFFF" d="M193.561,179.515h-6.246c-1.724,0-3.12-1.399-3.12-3.123c0-1.725,1.396-3.126,3.12-3.126h6.246v-37.694
		c0-6.204-3.671-11.817-9.355-14.305l-38.724-16.942c-1.583-0.692-2.301-2.531-1.609-4.11c0.688-1.582,2.534-2.306,4.11-1.609
		l38.728,16.942c7.953,3.479,13.095,11.342,13.095,20.024v37.694C199.805,176.714,197.003,179.515,193.561,179.515"/>
	<path fill="#FFFFFF" d="M137.366,179.515H112.39c-1.724,0-3.122-1.399-3.122-3.123c0-1.725,1.397-3.126,3.122-3.126h24.977
		c1.727,0,3.122,1.401,3.122,3.126C140.488,178.115,139.093,179.515,137.366,179.515"/>
	<path fill="#FFFFFF" d="M68.683,179.515h-3.122c-5.164,0-9.364-4.203-9.364-9.367V73.363c0-5.158,4.201-9.361,9.364-9.361h74.927
		c5.164,0,9.366,4.203,9.366,9.361v84.297c0,1.724-1.398,3.122-3.123,3.122c-1.726,0-3.122-1.398-3.122-3.122V73.363
		c0-1.72-1.4-3.117-3.122-3.117H65.561c-1.722,0-3.122,1.397-3.122,3.117v96.784c0,1.72,1.4,3.118,3.122,3.118h3.122
		c1.726,0,3.12,1.401,3.12,3.126C71.803,178.115,70.409,179.515,68.683,179.515"/>
	<path fill="#FFFFFF" d="M143.61,148.293H62.439c-1.724,0-3.12-1.397-3.12-3.122c0-1.724,1.396-3.122,3.12-3.122h81.171
		c1.724,0,3.122,1.398,3.122,3.122C146.732,146.896,145.334,148.293,143.61,148.293"/>
</g>
</svg>
