<?xml version="1.0" encoding="utf-8"?>
<!-- Generator: Adobe Illustrator 16.0.0, SVG Export Plug-In . SVG Version: 6.00 Build 0)  -->
<!DOCTYPE svg PUBLIC "-//W3C//DTD SVG 1.1//EN" "http://www.w3.org/Graphics/SVG/1.1/DTD/svg11.dtd">
<svg version="1.1" id="Layer_1" xmlns="http://www.w3.org/2000/svg" xmlns:xlink="http://www.w3.org/1999/xlink" x="0px" y="0px"
	 width="256px" height="256px" viewBox="0 0 256 256" enable-background="new 0 0 256 256" xml:space="preserve">
<g>
	<path fill="#0096CB" d="M25.798,129.952l-24.167-23.3c-2.122-2.04-2.181-5.413-0.135-7.536c2.048-2.117,5.422-2.181,7.541-0.135
		l17.01,16.395l18.386-16.527c2.185-1.97,5.554-1.792,7.527,0.403c1.978,2.19,1.792,5.563-0.393,7.532L25.798,129.952z"/>
	<path fill="#0096CB" d="M153.184,53.333c-1.459,0-2.915-0.595-3.964-1.771l-23.173-25.766l23.296-24.167
		c2.05-2.117,5.424-2.176,7.541-0.135c2.125,2.04,2.183,5.417,0.137,7.536L140.621,26.05l16.523,18.381
		c1.976,2.194,1.791,5.563-0.393,7.532C155.729,52.88,154.45,53.333,153.184,53.333"/>
	<path fill="#0096CB" d="M208,158.514c-1.46,0-2.915-0.596-3.96-1.771c-1.98-2.185-1.794-5.563,0.393-7.532l25.77-23.164
		l24.165,23.295c2.122,2.044,2.183,5.418,0.137,7.541c-2.046,2.117-5.415,2.19-7.541,0.134l-17.013-16.399l-18.384,16.525
		C210.545,158.062,209.271,158.514,208,158.514"/>
	<path fill="#0096CB" d="M101.333,255.998c-1.332,0-2.664-0.492-3.702-1.495c-2.123-2.042-2.183-5.417-0.137-7.536l16.399-17.024
		l-16.525-18.377c-1.973-2.196-1.788-5.563,0.397-7.534c2.185-1.971,5.563-1.79,7.532,0.404l23.17,25.766l-23.296,24.162
		C104.125,255.451,102.729,255.998,101.333,255.998"/>
	<path fill="#0096CB" d="M28.058,117.332c-0.275,0-0.56-0.018-0.844-0.064c-2.908-0.465-4.891-3.197-4.425-6.11
		c7.248-45.607,42.763-81.12,88.372-88.376c2.959-0.452,5.641,1.521,6.105,4.43c0.461,2.908-1.521,5.644-4.43,6.105
		c-41.036,6.528-72.993,38.485-79.517,79.517C32.904,115.462,30.635,117.332,28.058,117.332"/>
	<path fill="#0096CB" d="M227.941,117.332c-2.576,0-4.842-1.87-5.261-4.498c-6.521-41.032-38.479-72.989-79.515-79.517
		c-2.911-0.461-4.891-3.197-4.432-6.105c0.467-2.909,3.157-4.877,6.108-4.43c45.609,7.256,81.124,42.769,88.369,88.376
		c0.468,2.913-1.517,5.645-4.423,6.11C228.501,117.314,228.223,117.332,227.941,117.332"/>
	<path fill="#0096CB" d="M143.995,233.281c-2.576,0-4.847-1.869-5.261-4.498c-0.463-2.908,1.521-5.64,4.428-6.105
		c41.041-6.524,72.998-38.485,79.519-79.517c0.458-2.908,3.162-4.882,6.107-4.43c2.902,0.461,4.891,3.193,4.423,6.106
		c-7.245,45.604-42.76,81.12-88.369,88.38C144.554,233.264,144.272,233.281,143.995,233.281"/>
	<path fill="#0096CB" d="M112.004,233.281c-0.275,0-0.56-0.017-0.845-0.063c-45.611-7.261-81.124-42.776-88.372-88.38
		c-0.465-2.913,1.521-5.645,4.425-6.106c2.952-0.46,5.64,1.522,6.105,4.43c6.524,41.032,38.481,72.993,79.521,79.517
		c2.904,0.465,4.891,3.197,4.425,6.105C116.849,231.412,114.582,233.281,112.004,233.281"/>
</g>
</svg>
