<?xml version="1.0" encoding="utf-8"?>
<!-- Generator: Adobe Illustrator 16.0.0, SVG Export Plug-In . SVG Version: 6.00 Build 0)  -->
<!DOCTYPE svg PUBLIC "-//W3C//DTD SVG 1.1//EN" "http://www.w3.org/Graphics/SVG/1.1/DTD/svg11.dtd">
<svg version="1.1" id="Layer_1" xmlns="http://www.w3.org/2000/svg" xmlns:xlink="http://www.w3.org/1999/xlink" x="0px" y="0px"
	 width="256px" height="256px" viewBox="0 0 256 256" enable-background="new 0 0 256 256" xml:space="preserve">
<g>
	<path fill="#0096CB" d="M128.004,160.305c-30.665,0-52.091-36.752-57.273-51.864c-0.26-0.163-0.529-0.331-0.798-0.499
		c-2.024-1.25-3.355-2.081-4.255-3.671c-7.399-13.095-9.348-23.587-5.79-31.192c1.675-3.596,4.202-5.794,6.447-7.117
		c0-5.675,0.432-16.351,3.17-26.727C69.625,38.814,80.627,0,128.004,0c47.36,0,58.367,38.814,58.473,39.213
		c2.756,10.385,3.179,21.07,3.179,26.75c2.245,1.327,4.767,3.521,6.451,7.117c3.559,7.609,1.61,18.097-5.79,31.183
		c-0.882,1.585-2.231,2.421-4.264,3.684c-0.273,0.167-0.538,0.335-0.794,0.494C180.096,123.548,158.678,160.305,128.004,160.305
		 M75.225,97.571c0.255,0.164,0.546,0.335,0.833,0.514c2.531,1.572,4.524,2.818,5.261,5.352c2.76,9.586,21.448,45.265,46.685,45.265
		c25.241,0,43.916-35.679,46.664-45.259c0.741-2.54,2.738-3.781,5.256-5.351c0.295-0.181,0.573-0.357,0.842-0.516
		c6.698-12.232,5.666-17.656,4.89-19.449c-0.921-2.108-2.857-2.637-3.078-2.686c-2.716-0.655-4.749-3.202-4.595-5.997
		c0.004-0.139,0.719-14.274-2.721-27.243c-0.335-1.199-9-30.597-47.259-30.597c-38.276,0-46.941,29.397-47.29,30.652
		c-3.417,12.914-2.712,27.053-2.699,27.192c0.154,2.913-1.878,5.494-4.753,6.019c-0.071,0.022-2.006,0.551-2.924,2.659
		C69.559,79.919,68.526,85.347,75.225,97.571"/>
	<path fill="#0096CB" d="M128,256C58.578,256,8.317,245.353,7.814,245.245c-2.773-0.597-4.709-3.113-4.573-5.953
		c2.632-55.454,37.187-72.685,62.948-80.814c19.747-6.231,30.396-16.495,30.506-16.594c2.275-2.24,5.944-2.209,8.198,0.073
		c2.24,2.28,2.227,5.933-0.044,8.182c-0.502,0.5-12.563,12.272-35.171,19.407c-24.928,7.871-50.667,21.841-54.508,65.303
		c14.076,2.593,57.105,9.547,112.831,9.547c55.716,0,98.755-6.954,112.826-9.547c-3.845-43.462-29.584-57.432-54.508-65.308
		c-22.604-7.13-34.669-18.902-35.176-19.398c-2.271-2.253-2.293-5.933-0.04-8.21c2.262-2.275,5.917-2.298,8.202-0.044
		c0.247,0.234,10.887,10.405,30.506,16.585c25.757,8.138,60.307,25.365,62.948,80.818c0.137,2.84-1.808,5.356-4.573,5.953
		C247.684,245.353,197.413,256,128,256"/>
	<path fill="#0096CB" d="M129.932,203.895c-19.319,0-38.638-7.355-53.344-22.064c-4.595-4.592-8.572-9.743-11.827-15.301
		c-1.614-2.77-0.688-6.328,2.077-7.944c2.769-1.621,6.319-0.69,7.941,2.082c2.752,4.709,6.121,9.068,10.015,12.96
		c24.888,24.891,65.382,24.891,90.275,0c3.073-3.071,5.825-6.447,8.188-10.027c1.769-2.679,5.367-3.416,8.035-1.658
		c2.681,1.766,3.417,5.36,1.658,8.037c-2.795,4.244-6.05,8.229-9.675,11.853C168.569,196.54,149.25,203.895,129.932,203.895"/>
	<path fill="#0096CB" d="M129.932,250.354c-3.206,0-5.803-2.598-5.803-5.803v-46.423c0-3.206,2.597-5.803,5.803-5.803
		c3.206,0,5.803,2.597,5.803,5.803v46.423C135.735,247.756,133.137,250.354,129.932,250.354"/>
	<path fill="#0096CB" d="M112.522,227.143c-1.508,0-3.021-0.642-4.119-1.685c-1.054-1.107-1.685-2.615-1.685-4.119
		c0-1.508,0.631-3.021,1.685-4.123c2.205-2.143,6.033-2.143,8.237,0c1.045,1.103,1.685,2.615,1.685,4.123
		c0,1.504-0.64,3.012-1.685,4.119C115.538,226.501,114.03,227.143,112.522,227.143"/>
</g>
</svg>
