<?xml version="1.0" encoding="utf-8"?>
<!-- Generator: Adobe Illustrator 16.0.0, SVG Export Plug-In . SVG Version: 6.00 Build 0)  -->
<!DOCTYPE svg PUBLIC "-//W3C//DTD SVG 1.1//EN" "http://www.w3.org/Graphics/SVG/1.1/DTD/svg11.dtd">
<svg version="1.1" id="Layer_1" xmlns="http://www.w3.org/2000/svg" xmlns:xlink="http://www.w3.org/1999/xlink" x="0px" y="0px"
	 width="256px" height="256px" viewBox="0 0 256 256" enable-background="new 0 0 256 256" xml:space="preserve">
<g>
	<path fill="#0096CB" d="M127.942,256c-42.417,0-85.438-17.586-112.284-45.882c-1.707-1.803-2.099-4.485-0.957-6.694
		c6.725-13.105,25.92-37.976,55.117-48.026c17.008-5.856,21.55-7.854,22.767-11.535c-2.302-0.137-4.97-0.155-7.594-0.168
		c-11.933-0.071-26.785-0.154-34.246-10.107c-8.775-11.698-2.143-21.867,4.273-31.705c1.5-2.295,3.087-4.725,4.599-7.338
		c11.324-19.521,12.118-27.545,13.115-37.709l0.22-2.25c3.4-33.044,22.82-52.426,54.689-54.574c0.26-0.016,0.521-0.016,0.785,0
		c31.86,2.147,51.281,21.53,54.68,54.569l0.221,2.254c1.001,10.164,1.786,18.188,13.115,37.709c1.517,2.613,3.104,5.042,4.608,7.347
		c6.107,9.373,13.043,19.998,4.268,31.696c-7.465,9.953-22.313,10.037-34.241,10.107c-2.627,0.013-5.3,0.031-7.602,0.168
		c1.217,3.682,5.759,5.679,22.763,11.535c29.077,10.006,48.286,34.81,55.05,47.885c1.151,2.213,0.767,4.903-0.939,6.707
		C213.49,238.37,170.421,256,127.942,256 M27.15,205.121c24.597,23.914,63.627,39.189,100.792,39.189
		c37.218,0,76.292-15.315,100.902-39.295c-7.117-11.584-23.397-30.651-46.407-38.567c-27.018-9.3-31.088-12.907-31.088-27.556
		c0-2.593,1.707-4.873,4.194-5.605c4.132-1.212,9.383-1.248,15.465-1.279c9.348-0.058,20.981-0.124,24.963-5.428
		c3.567-4.761,1.768-8.372-4.714-18.307c-1.605-2.46-3.298-5.069-4.93-7.864c-12.59-21.72-13.538-31.315-14.627-42.433l-0.225-2.205
		c-2.809-27.349-17.427-42.183-43.44-44.071c-26.022,1.888-40.635,16.722-43.449,44.075l-0.225,2.2
		c-1.089,11.117-2.038,20.712-14.631,42.433c-1.627,2.795-3.316,5.399-4.926,7.855c-6.482,9.944-8.272,13.555-4.714,18.316
		c3.986,5.305,15.619,5.371,24.967,5.428c6.077,0.031,11.329,0.066,15.461,1.279c2.487,0.732,4.193,3.012,4.193,5.605
		c0,14.649-4.07,18.256-31.088,27.556C50.513,174.403,34.232,193.52,27.15,205.121"/>
	<path fill="#0096CB" d="M157.906,252.168c-0.185,0-0.383-0.009-0.577-0.026c-3.211-0.317-5.557-3.174-5.244-6.385
		c4.462-45.402,28.328-84.163,29.342-85.786c1.702-2.743,5.292-3.589,8.048-1.874c2.738,1.697,3.576,5.305,1.878,8.047
		c-0.238,0.375-23.451,38.144-27.635,80.755C163.418,249.915,160.878,252.168,157.906,252.168"/>
	<path fill="#0096CB" d="M98.732,252.168c-2.977,0-5.517-2.253-5.812-5.269c-4.203-42.708-27.397-80.38-27.631-80.755
		c-1.706-2.743-0.869-6.341,1.875-8.047c2.729-1.707,6.341-0.873,8.047,1.874c1.015,1.623,24.879,40.384,29.342,85.786
		c0.309,3.211-2.033,6.068-5.248,6.385C99.111,252.159,98.922,252.168,98.732,252.168"/>
</g>
</svg>
