<?xml version="1.0" encoding="utf-8"?>
<!-- Generator: Adobe Illustrator 16.0.0, SVG Export Plug-In . SVG Version: 6.00 Build 0)  -->
<!DOCTYPE svg PUBLIC "-//W3C//DTD SVG 1.1//EN" "http://www.w3.org/Graphics/SVG/1.1/DTD/svg11.dtd">
<svg version="1.1" id="Layer_1" xmlns="http://www.w3.org/2000/svg" xmlns:xlink="http://www.w3.org/1999/xlink" x="0px" y="0px"
	 width="256px" height="256px" viewBox="0 0 256 256" enable-background="new 0 0 256 256" xml:space="preserve">
<g>
	<path fill="#0096CB" d="M10.896,256c-0.701,0-1.407-0.137-2.09-0.415c-2.028-0.842-3.355-2.831-3.355-5.036v-70.802
		c0-1.759,0.847-3.404,2.271-4.427c0.335-0.238,33.373-23.993,53.93-43.131c1.526-1.429,3.731-1.843,5.684-1.098
		c125.429,48.656,159.477,48.656,177.768,48.656c3.007,0,5.446,2.434,5.446,5.446v65.356c0,1.451-0.578,2.84-1.605,3.863
		c-1.019,1.019-2.403,1.587-3.841,1.587h-0.027c-1.036-0.004-104.395-0.485-172.974-0.485c-47.351,0-58.133,0.229-60.135,0.375
		C11.611,255.965,11.258,256,10.896,256 M72.103,244.619c59.531,0,145.229,0.362,167.55,0.463v-54.477
		c-20.302-0.344-59.398-4.229-173.098-48.127c-18,16.325-42.624,34.523-50.218,40.053v62.362
		C24.359,244.619,40.098,244.619,72.103,244.619"/>
	<path fill="#0096CB" d="M201.532,185.189c-3.012,0-5.451-2.438-5.451-5.446v-72.707c-10.874-4.824-45.446-20.395-59.923-29.638
		c-33.576,22.013-82.867,33.042-98.027,36.054v49.953c0,3.012-2.443,5.446-5.451,5.446c-3.007,0-5.441-2.435-5.441-5.446v-54.468
		c0-2.65,1.905-4.913,4.516-5.367c0.639-0.11,64.267-11.373,101.299-37.227c1.922-1.345,4.498-1.305,6.385,0.11
		c12.422,9.317,63.755,31.816,64.275,32.05c1.98,0.864,3.263,2.822,3.263,4.987v76.252
		C206.978,182.751,204.539,185.189,201.532,185.189"/>
	<path fill="#0096CB" d="M65.365,103.491c-3.007,0-5.446-2.438-5.446-5.446v-65.36c0-2.575,1.795-4.798,4.317-5.331
		c0.494-0.097,49.631-10.61,86.055-26.873c1.777-0.807,3.845-0.583,5.415,0.564c13.869,10.049,26.181,15.733,26.304,15.791
		c1.936,0.891,3.18,2.827,3.18,4.957v70.806c0,3.007-2.438,5.446-5.446,5.446c-3.007,0-5.446-2.438-5.446-5.446V25.193
		c-4.396-2.231-12.863-6.813-22.428-13.512C120.878,25.069,83.423,34.18,70.811,37.059v60.986
		C70.811,101.053,68.373,103.491,65.365,103.491"/>
	<path fill="#0096CB" d="M245.104,212.423c-18.847,0-53.785,0.004-178.548-48.167c-21.047,19.103-51.161,40.754-52.484,41.698
		c-2.452,1.755-5.847,1.195-7.598-1.248c-1.755-2.447-1.195-5.847,1.248-7.602c0.335-0.234,33.373-23.993,53.93-43.127
		c1.53-1.433,3.731-1.843,5.684-1.098c125.429,48.652,159.477,48.652,177.768,48.652c3.007,0,5.446,2.438,5.446,5.446
		C250.55,209.989,248.111,212.423,245.104,212.423"/>
	<path fill="#0096CB" d="M245.104,234.212c-18.847,0-53.785,0.004-178.548-48.167c-21.047,19.098-51.161,40.754-52.484,41.702
		c-2.452,1.755-5.847,1.19-7.598-1.252c-1.755-2.447-1.195-5.847,1.248-7.602c0.335-0.238,33.373-23.993,53.93-43.131
		c1.53-1.424,3.731-1.839,5.684-1.098c125.429,48.652,159.477,48.652,177.768,48.652c3.007,0,5.446,2.438,5.446,5.45
		C250.55,231.773,248.111,234.212,245.104,234.212"/>
	<path fill="#0096CB" d="M245.104,255.996c-18.847,0-53.785,0.009-178.548-48.163c-21.047,19.098-51.161,40.75-52.484,41.698
		c-2.452,1.759-5.847,1.195-7.598-1.252c-1.755-2.448-1.195-5.843,1.248-7.598c0.335-0.238,33.373-23.993,53.93-43.131
		c1.53-1.434,3.731-1.843,5.684-1.098c125.429,48.656,159.477,48.656,177.768,48.656c3.007,0,5.446,2.434,5.446,5.446
		C250.55,253.562,248.111,255.996,245.104,255.996"/>
	<path fill="#0096CB" d="M139.016,255.449c-0.564,0-1.138-0.083-1.707-0.269c-20.699-6.822-44.489-15.42-70.753-25.559
		c-9.446,8.573-19.689,16.682-29.435,24.218c-2.377,1.834-5.799,1.398-7.638-0.975c-1.843-2.381-1.407-5.799,0.975-7.642
		c10.411-8.057,21.391-16.761,31.194-25.885c1.53-1.429,3.731-1.843,5.684-1.098c27.34,10.61,52.03,19.557,73.386,26.586
		c2.853,0.944,4.405,4.022,3.47,6.879C143.434,253.998,141.304,255.449,139.016,255.449"/>
	<path fill="#0096CB" d="M32.68,136.171c-2.602,0-4.903-1.87-5.362-4.516c-0.516-2.963,1.473-5.781,4.436-6.301
		c0.639-0.106,64.267-11.368,101.299-37.223c1.922-1.354,4.498-1.31,6.385,0.11c12.422,9.313,63.755,31.816,64.275,32.05
		c2.752,1.204,4.013,4.41,2.805,7.17c-1.208,2.756-4.423,4.018-7.175,2.805c-2.011-0.877-46.288-20.289-63.186-31.084
		c-39.229,25.722-99.915,36.451-102.547,36.909C33.298,136.145,32.989,136.171,32.68,136.171"/>
	<path fill="#0096CB" d="M201.527,152.509c-0.728,0-1.473-0.141-2.183-0.455c-2.011-0.877-46.288-20.293-63.195-31.083
		c-14.168,9.291-32.738,17.665-55.28,24.91c-2.871,0.904-5.931-0.648-6.853-3.51c-0.921-2.871,0.653-5.939,3.519-6.861
		c23.204-7.461,41.875-16.069,55.518-25.594c1.922-1.35,4.498-1.31,6.385,0.115c12.422,9.309,63.755,31.816,64.275,32.045
		c2.752,1.208,4.013,4.414,2.805,7.17C205.624,151.292,203.626,152.509,201.527,152.509"/>
	<path fill="#0096CB" d="M201.527,174.297c-0.728,0-1.473-0.141-2.183-0.458c-2.011-0.877-46.288-20.289-63.195-31.08
		c-7.192,4.718-15.61,9.234-25.047,13.458c-2.751,1.204-5.966,0-7.192-2.748c-1.23-2.747,0-5.971,2.743-7.196
		c10.222-4.578,19.107-9.477,26.401-14.57c1.922-1.345,4.498-1.314,6.385,0.11c12.422,9.313,63.755,31.82,64.275,32.045
		c2.752,1.208,4.013,4.419,2.805,7.17C205.624,173.08,203.626,174.297,201.527,174.297"/>
	<path fill="#0096CB" d="M65.36,59.919c-2.526,0-4.784-1.755-5.322-4.321c-0.626-2.941,1.252-5.834,4.198-6.456
		c0.494-0.102,49.631-10.614,86.055-26.877c1.777-0.798,3.845-0.573,5.415,0.564c13.869,10.05,26.181,15.738,26.304,15.8
		c2.734,1.248,3.934,4.485,2.686,7.214c-1.256,2.738-4.48,3.938-7.214,2.686c-0.512-0.229-11.928-5.49-25.612-15.063
		C114.802,49.472,68.496,59.376,66.489,59.8C66.11,59.884,65.731,59.919,65.36,59.919"/>
	<path fill="#0096CB" d="M65.36,81.707c-2.526,0-4.784-1.759-5.322-4.321c-0.626-2.941,1.252-5.834,4.198-6.456
		c0.494-0.101,49.631-10.609,86.055-26.881c1.777-0.802,3.845-0.578,5.415,0.564c13.869,10.059,26.181,15.743,26.304,15.8
		c2.734,1.252,3.934,4.485,2.686,7.219c-1.256,2.734-4.48,3.942-7.214,2.686c-0.512-0.229-11.928-5.49-25.612-15.063
		c-37.068,16.007-83.374,25.912-85.38,26.334C66.11,81.667,65.731,81.707,65.36,81.707"/>
	<path fill="#0096CB" d="M179.739,92.599c-0.758,0-1.525-0.163-2.257-0.499c-0.503-0.225-11.567-5.318-24.955-14.6
		c-2.593,1.614-6.081,3.246-9.428,3.06c-3.003-0.185-5.288-2.765-5.102-5.772c0.185-2.999,2.712-5.23,5.772-5.102
		c0.838-0.075,3.453-1.57,5.261-3.065c1.918-1.579,4.67-1.68,6.676-0.22c13.869,10.054,26.181,15.738,26.304,15.8
		c2.734,1.248,3.934,4.484,2.686,7.214C183.778,91.417,181.803,92.599,179.739,92.599"/>
</g>
</svg>
