<?xml version="1.0" encoding="utf-8"?>
<!-- Generator: Adobe Illustrator 16.0.0, SVG Export Plug-In . SVG Version: 6.00 Build 0)  -->
<!DOCTYPE svg PUBLIC "-//W3C//DTD SVG 1.1//EN" "http://www.w3.org/Graphics/SVG/1.1/DTD/svg11.dtd">
<svg version="1.1" id="Layer_1" xmlns="http://www.w3.org/2000/svg" xmlns:xlink="http://www.w3.org/1999/xlink" x="0px" y="0px"
	 width="256px" height="256px" viewBox="0 0 256 256" enable-background="new 0 0 256 256" xml:space="preserve">
<g>
	<path fill="#0098CE" d="M256,128c0,70.692-57.306,128-128,128C57.311,256,0,198.692,0,128S57.311,0,128,0
		C198.694,0,256,57.308,256,128"/>
	<path fill="#FFFFFF" d="M128,151.151c-13.513,0-24.509-10.998-24.509-24.515c0-13.511,10.996-24.509,24.509-24.509
		c13.516,0,24.511,10.998,24.511,24.509C152.511,140.153,141.516,151.151,128,151.151 M128,107.574
		c-10.508,0-19.061,8.555-19.061,19.063c0,10.513,8.553,19.063,19.061,19.063c10.511,0,19.066-8.551,19.066-19.063
		C147.066,116.129,138.511,107.574,128,107.574"/>
	<path fill="#FFFFFF" d="M144.34,113.02c-0.696,0-1.393-0.264-1.925-0.797c-1.064-1.063-1.064-2.787,0-3.851l24.51-24.509
		c1.066-1.066,2.789-1.066,3.851,0c1.066,1.063,1.066,2.787,0,3.85l-24.508,24.51C145.735,112.756,145.039,113.02,144.34,113.02"/>
	<path fill="#FFFFFF" d="M177.021,91.236c-7.509,0-13.615-6.112-13.615-13.617c0-7.51,6.106-13.621,13.615-13.621
		s13.616,6.111,13.616,13.621C190.638,85.124,184.53,91.236,177.021,91.236 M177.021,69.448c-4.506,0-8.17,3.665-8.17,8.171
		c0,4.503,3.664,8.167,8.17,8.167c4.508,0,8.173-3.664,8.173-8.167C185.194,73.113,181.529,69.448,177.021,69.448"/>
	<path fill="#FFFFFF" d="M168.852,192.002c-10.512,0-19.063-8.555-19.063-19.067c0-10.512,8.552-19.063,19.063-19.063
		c10.51,0,19.063,8.551,19.063,19.063C187.914,183.447,179.361,192.002,168.852,192.002 M168.852,159.318
		c-7.51,0-13.617,6.111-13.617,13.616c0,7.51,6.107,13.621,13.617,13.621c7.507,0,13.616-6.111,13.616-13.621
		C182.468,165.43,176.358,159.318,168.852,159.318"/>
	<path fill="#FFFFFF" d="M78.98,110.295c-7.511,0-13.618-6.107-13.618-13.613c0-7.509,6.107-13.616,13.618-13.616
		c7.507,0,13.616,6.107,13.616,13.616C92.597,104.188,86.487,110.295,78.98,110.295 M78.98,88.511c-4.508,0-8.173,3.665-8.173,8.171
		c0,4.508,3.665,8.167,8.173,8.167c4.504,0,8.171-3.659,8.171-8.167C87.151,92.176,83.484,88.511,78.98,88.511"/>
	<path fill="#FFFFFF" d="M89.874,174.297c-5.256,0-9.534-4.277-9.534-9.529c0-5.257,4.278-9.533,9.534-9.533
		s9.531,4.276,9.531,9.533C99.405,170.02,95.13,174.297,89.874,174.297 M89.874,160.68c-2.254,0-4.085,1.835-4.085,4.088
		c0,2.249,1.831,4.083,4.085,4.083s4.085-1.834,4.085-4.083C93.959,162.515,92.128,160.68,89.874,160.68"/>
	<path fill="#FFFFFF" d="M95.32,162.043c-0.697,0-1.394-0.27-1.926-0.799c-1.064-1.063-1.064-2.787,0-3.849l16.341-16.343
		c1.063-1.063,2.786-1.063,3.85,0c1.066,1.063,1.066,2.787,0,3.85l-16.339,16.342C96.713,161.773,96.02,162.043,95.32,162.043"/>
	<path fill="#FFFFFF" d="M108.935,115.745c-0.458,0-0.924-0.114-1.35-0.361l-19.063-10.892c-1.305-0.746-1.76-2.408-1.014-3.713
		c0.743-1.31,2.409-1.765,3.714-1.015l19.066,10.892c1.305,0.745,1.759,2.412,1.012,3.718
		C110.8,115.252,109.881,115.745,108.935,115.745"/>
	<path fill="#FFFFFF" d="M157.962,162.043c-0.785,0-1.557-0.331-2.097-0.979l-13.615-16.342c-0.966-1.155-0.807-2.871,0.347-3.837
		c1.159-0.961,2.872-0.802,3.838,0.353l13.617,16.338c0.961,1.155,0.807,2.871-0.351,3.837
		C159.192,161.835,158.574,162.043,157.962,162.043"/>
</g>
</svg>
