<?xml version="1.0" encoding="utf-8"?>
<!-- Generator: Adobe Illustrator 16.0.0, SVG Export Plug-In . SVG Version: 6.00 Build 0)  -->
<!DOCTYPE svg PUBLIC "-//W3C//DTD SVG 1.1//EN" "http://www.w3.org/Graphics/SVG/1.1/DTD/svg11.dtd">
<svg version="1.1" id="Layer_1" xmlns="http://www.w3.org/2000/svg" xmlns:xlink="http://www.w3.org/1999/xlink" x="0px" y="0px"
	 width="256px" height="256px" viewBox="0 0 256 256" enable-background="new 0 0 256 256" xml:space="preserve">
<g>
	<path fill="#0098CE" d="M256,128c0,70.692-57.309,128.001-128.001,128.001S0,198.692,0,128S57.307-0.001,127.999-0.001
		S256,57.308,256,128"/>
	<path fill="#FFFFFF" d="M127.999,191.271c-0.598,0-1.197-0.189-1.698-0.573c-1.991-1.521-48.776-37.659-48.776-75.349
		c0-27.914,22.642-50.619,50.474-50.619c27.834,0,50.476,22.705,50.476,50.619c0,37.514-46.78,73.818-48.771,75.345
		C129.201,191.081,128.599,191.271,127.999,191.271 M127.999,70.352c-24.741,0-44.869,20.188-44.869,44.997
		c0,31.04,36.475,62.653,44.865,69.511c8.385-6.884,44.873-38.616,44.873-69.511C172.868,90.539,152.74,70.352,127.999,70.352"/>
	<path fill="none" stroke="#FFFFFF" stroke-width="1.3885" stroke-miterlimit="10" d="M127.999,191.271
		c-0.598,0-1.197-0.189-1.698-0.573c-1.991-1.521-48.776-37.659-48.776-75.349c0-27.914,22.642-50.619,50.474-50.619
		c27.834,0,50.476,22.705,50.476,50.619c0,37.514-46.78,73.818-48.771,75.345C129.201,191.081,128.599,191.271,127.999,191.271z
		 M127.999,70.352c-24.741,0-44.869,20.188-44.869,44.997c0,31.04,36.475,62.653,44.865,69.511
		c8.385-6.884,44.873-38.616,44.873-69.511C172.868,90.539,152.74,70.352,127.999,70.352z"/>
	<path fill="#FFFFFF" d="M127.999,137.843c-12.37,0-22.435-10.094-22.435-22.494c0-12.404,10.065-22.499,22.435-22.499
		c12.369,0,22.437,10.095,22.437,22.499C150.436,127.749,140.368,137.843,127.999,137.843 M127.999,98.473
		c-9.278,0-16.825,7.571-16.825,16.876c0,9.3,7.547,16.871,16.825,16.871c9.278,0,16.825-7.571,16.825-16.871
		C144.824,106.044,137.277,98.473,127.999,98.473"/>
	<path fill="none" stroke="#FFFFFF" stroke-width="1.3885" stroke-miterlimit="10" d="M127.999,137.843
		c-12.37,0-22.435-10.094-22.435-22.494c0-12.404,10.065-22.499,22.435-22.499c12.369,0,22.437,10.095,22.437,22.499
		C150.436,127.749,140.368,137.843,127.999,137.843z M127.999,98.473c-9.278,0-16.825,7.571-16.825,16.876
		c0,9.3,7.547,16.871,16.825,16.871c9.278,0,16.825-7.571,16.825-16.871C144.824,106.044,137.277,98.473,127.999,98.473z"/>
</g>
</svg>
