<?xml version="1.0" encoding="utf-8"?>
<!-- Generator: Adobe Illustrator 16.0.0, SVG Export Plug-In . SVG Version: 6.00 Build 0)  -->
<!DOCTYPE svg PUBLIC "-//W3C//DTD SVG 1.1//EN" "http://www.w3.org/Graphics/SVG/1.1/DTD/svg11.dtd">
<svg version="1.1" id="Layer_1" xmlns="http://www.w3.org/2000/svg" xmlns:xlink="http://www.w3.org/1999/xlink" x="0px" y="0px"
	 width="1519.531px" height="256px" viewBox="0 0 1519.531 256" enable-background="new 0 0 1519.531 256" xml:space="preserve">
<g>
	<path fill="#FFFFFF" d="M305.98,35.582c-4.944-6.478-12.51-10.187-20.677-10.187H103.391c-15.806,0-29.705,10.677-33.743,25.92
		L30.542,197.876c-2.094,7.902-0.444,16.14,4.534,22.618c4.979,6.477,12.505,10.185,20.672,10.185h181.994
		c15.838,0,29.698-10.675,33.782-25.954l38.991-146.557C312.608,50.302,310.958,42.064,305.98,35.582 M168.296,204.465l-5.469,2.998
		c-0.631,0.331-1.38,0.521-2.129,0.521h-97.08c-1.09,0-2.143-0.334-2.928-1.045c-9.176-8.352-8.727-23.181,1.313-30.898
		l54.345-32.027l17.043-64.083l-5.243-2.06l0.856-3.182h37.381l-0.82,3.182l-7.153,2.06l-17.118,64.083l33.896,27.454
		C183.506,182.257,180.246,197.908,168.296,204.465 M278.865,95.995c0,0-6.633,31.983-58.428,32.023
		c-49.927,0.076-41.389-32.023-41.389-32.023s6.252-31.983,57.304-31.983c0,0-2.246-5.358-22.397-5.358h-80.675l2.848-10.672h80.675
		C291.671,47.981,278.865,95.995,278.865,95.995"/>
	<path fill="#FFFFFF" d="M296.694,0H88.974C68.897,0,51.333,13.484,46.161,32.923L1.517,200.231
		C-5.975,228.396,15.227,256,44.367,256h207.828c20.077,0,37.641-13.519,42.815-32.958L339.539,55.73
		C347.031,27.604,325.832,0,296.694,0 M319.575,60.603l-38.989,146.521c-5.164,19.437-22.733,32.958-42.85,32.958H55.747
		c-23.296,0-40.26-22.093-34.268-44.608L60.581,48.916c5.167-19.402,22.736-32.923,42.81-32.923h181.913
		C308.6,15.993,325.569,38.095,319.575,60.603"/>
	<path fill="#FFFFFF" d="M424.151,110.618l-4.612,17.458h-46.857l1.191-4.357c1.623,0,2.87-0.287,3.744-0.874
		c0.881-0.582,1.524-1.345,1.939-2.293c0.41-0.945,0.847-2.288,1.313-4.023l11.024-41.255c0.19-0.816,0.292-1.575,0.292-2.272
		c0-3.152-1.596-4.726-4.775-4.726h-1.231l1.231-4.353h25.382l-1.191,4.353c-1.971,0-3.444,0.158-4.401,0.467
		c-0.967,0.317-1.711,0.943-2.263,1.87c-0.547,0.93-1.137,2.517-1.772,4.753l-9.993,37.712c-0.74,2.619-1.11,4.652-1.11,6.098
		c0,1.17,0.374,2.078,1.129,2.726c0.753,0.644,1.688,1.062,2.799,1.248c1.107,0.189,2.381,0.287,3.802,0.287
		c3.211,0,5.98-0.287,8.312-0.852c2.333-0.569,4.512-1.772,6.54-3.621c2.033-1.848,3.859-4.625,5.472-8.347H424.151z"/>
	<path fill="#FFFFFF" d="M485.9,123.724l-1.107,4.352h-25.343l1.151-4.352c2.113,0,3.744-0.287,4.895-0.852
		c1.151-0.569,1.976-1.601,2.469-3.101c0.494-1.5,0.741-3.669,0.741-6.504v-8.047h-17.524l-6.007,10.08
		c-1.458,2.492-2.187,4.291-2.187,5.398c0,2.015,1.689,3.026,5.063,3.026h2.345l-1.146,4.352h-19.997l1.193-4.352
		c1.893-0.16,3.775-1.24,5.658-3.246c1.875-1.998,3.93-4.798,6.147-8.397l30.237-49.296h7.162l-0.579,53.464
		c0,2.111,0.204,3.682,0.613,4.705c0.42,1.022,1.098,1.741,2.06,2.151C482.708,123.52,484.093,123.724,485.9,123.724 M469.117,75.75
		l-15.178,25.117h14.768L469.117,75.75z"/>
	<path fill="#FFFFFF" d="M549.242,77.875c0,2.558-0.658,4.966-1.977,7.236c-1.318,2.275-3.275,4.225-5.881,5.847
		c-2.607,1.623-5.676,2.752-9.217,3.383c7.461,2.742,11.195,7.792,11.195,15.138c0,3.409-0.869,6.451-2.598,9.137
		c-1.723,2.678-3.783,4.789-6.168,6.333c-1.566,0.979-3.264,1.689-5.104,2.133c-1.838,0.442-3.557,0.716-5.162,0.825
		c-1.605,0.115-3.383,0.169-5.328,0.169h-24.438l1.195-4.352c1.866,0,3.228-0.601,4.087-1.801c0.869-1.198,1.615-2.998,2.246-5.396
		l10.697-40.12c0.438-1.605,0.662-2.823,0.662-3.643c0-2.993-1.606-4.493-4.815-4.493l1.11-4.352h22.42
		c2.391,0,4.414,0.153,6.066,0.449c1.662,0.3,3.285,0.984,4.873,2.06c1.813,1.198,3.289,2.782,4.428,4.75
		C548.674,73.152,549.242,75.383,549.242,77.875 M531.924,104.417c0-3.343-0.695-5.455-2.08-6.341
		c-1.385-0.883-3.176-1.323-5.371-1.323h-5.799l-4.895,18.261c-0.438,1.512-0.658,2.875-0.658,4.07c0,1.044,0.463,2.028,1.398,2.958
		c0.932,0.93,2.566,1.394,4.895,1.394c1.813,0,3.582-0.451,5.311-1.345c1.729-0.904,3.275-2.977,4.646-6.223
		c0.686-1.547,1.283-3.386,1.791-5.511C531.67,108.227,531.924,106.248,531.924,104.417 M538.301,74.99
		c0-2.809-0.74-4.576-2.221-5.295c-1.482-0.729-3.691-1.094-6.625-1.094h-3.295l-6.291,23.518h3.783c2.275,0,4.283-0.38,6.006-1.134
		c1.729-0.758,3.008-1.583,3.828-2.46c1.34-1.424,2.479-3.527,3.414-6.318C537.83,79.409,538.301,77.006,538.301,74.99"/>
	<path fill="#FFFFFF" d="M613.711,89.235c0,4.379-0.854,8.916-2.564,13.599c-1.717,4.684-4.176,9.036-7.365,13.057
		c-3.197,4.023-7.025,7.254-11.479,9.702c-4.463,2.442-9.35,3.66-14.672,3.66c-5.648,0-10.266-1.306-13.842-3.92
		c-3.58-2.615-6.152-5.921-7.717-9.913c-1.557-3.986-2.34-8.035-2.34-12.139c0-6.178,1.52-12.428,4.563-18.734
		c3.047-6.309,7.338-11.508,12.881-15.615c5.537-4.097,11.871-6.146,19.002-6.146c5.486,0,9.99,1.283,13.516,3.858
		c3.523,2.566,6.072,5.865,7.654,9.886C612.922,80.552,613.711,84.785,613.711,89.235 M602.316,82.747
		c0-10.406-4.18-15.615-12.549-15.615c-2.197,0-4.318,0.446-6.377,1.328c-2.055,0.886-4.004,2.315-5.838,4.281
		c-1.844,1.976-3.498,4.489-4.979,7.545c-1.977,4.259-3.719,9.097-5.227,14.503c-1.508,5.412-2.262,10.403-2.262,14.976
		c0,10.059,4.074,15.089,12.219,15.089c4.525,0,8.422-1.63,11.682-4.895c3.264-3.263,5.992-7.831,8.186-13.697
		C600.602,96.992,602.316,89.151,602.316,82.747"/>
	<path fill="#FFFFFF" d="M671.986,80.103c0,1.635-0.275,3.413-0.82,5.317c-0.551,1.91-1.512,3.756-2.885,5.535
		c-1.367,1.785-3.311,3.314-5.816,4.594c-2.514,1.275-5.662,2.073-9.445,2.386c1.377,1.23,2.479,2.641,3.313,4.239
		c0.832,1.586,1.746,4.245,2.732,7.966c0.742,2.749,1.451,4.958,2.121,6.625c0.67,1.671,1.676,3.14,3.004,4.401
		c1.332,1.265,3.162,2.116,5.494,2.553l-1.156,4.357H654.17c-0.736-1.17-1.451-2.616-2.139-4.357
		c-0.688-1.733-1.742-4.904-3.17-9.507l-1.686-5.538c-0.846-2.898-1.521-4.936-2.01-6.1c-0.494-1.168-1.297-2.082-2.408-2.747
		c-1.109-0.662-2.803-0.992-5.078-0.992h-2.352l-4.316,16.184c-0.496,1.797-0.742,3.152-0.742,4.065c0,1.989,0.672,3.258,2.016,3.81
		c1.346,0.552,3.029,0.825,5.063,0.825l-1.191,4.357h-25.264l1.156-4.357c1.529,0,2.725-0.204,3.576-0.613
		c0.852-0.41,1.557-1.129,2.117-2.148c0.564-1.026,1.094-2.504,1.582-4.428l10.619-40.118c0.49-1.897,0.742-3.14,0.742-3.739
		c0-1.544-0.498-2.665-1.482-3.36c-0.988-0.689-2.1-1.036-3.334-1.036h-1.6l1.102-4.353h26.457c2.938,0,5.336,0.167,7.219,0.516
		c1.875,0.349,3.709,1.058,5.494,2.129c2.168,1.232,3.953,2.99,5.346,5.28C671.285,74.131,671.986,76.878,671.986,80.103
		 M660.428,78.444c0-4.229-1.203-6.923-3.598-8.091c-2.402-1.165-5.248-1.752-8.541-1.752h-4.975l-6.752,25.551h4.322
		c6.174,0,10.434-0.771,12.797-2.319c2.133-1.385,3.797-3.321,4.973-5.794C659.838,83.564,660.428,81.033,660.428,78.444"/>
	<path fill="#FFFFFF" d="M735.119,123.724l-1.105,4.352H708.67l1.15-4.352c2.109,0,3.744-0.287,4.896-0.852
		c1.15-0.569,1.971-1.601,2.469-3.101c0.494-1.5,0.736-3.669,0.736-6.504v-8.047h-17.523l-6.008,10.08
		c-1.455,2.492-2.182,4.291-2.182,5.398c0,2.015,1.689,3.026,5.063,3.026h2.346l-1.15,4.352h-19.998l1.199-4.352
		c1.887-0.16,3.775-1.24,5.652-3.246c1.879-1.998,3.93-4.798,6.146-8.397l30.242-49.296h7.158l-0.574,53.464
		c0,2.111,0.203,3.682,0.613,4.705c0.416,1.022,1.098,1.741,2.061,2.151C731.924,123.52,733.311,123.724,735.119,123.724
		 M718.336,75.75l-15.178,25.117h14.764L718.336,75.75z"/>
	<path fill="#FFFFFF" d="M803.59,63.919l-4.861,18.406h-3.906c0.248-1.576,0.371-3.029,0.371-4.353c0-4.075-0.777-6.645-2.32-7.735
		c-1.553-1.089-3.531-1.637-5.943-1.637h-4.9l-12.381,46.418c-0.494,1.794-0.742,3.182-0.742,4.161c0,1.765,0.564,2.968,1.707,3.594
		c1.141,0.631,2.27,0.95,3.393,0.95h2.059l-1.191,4.352h-27.648l1.111-4.352h1.357c2.797,0,4.684-0.455,5.654-1.372
		c0.979-0.918,1.834-2.826,2.574-5.729l12.752-48.022h-3.041h-1.156c-2.852,0-5.555,0.849-8.123,2.536
		c-2.563,1.686-4.955,5.412-7.178,11.188h-3.951l4.898-18.406H803.59z"/>
	<path fill="#FFFFFF" d="M864.381,89.235c0,4.379-0.859,8.916-2.57,13.599c-1.715,4.684-4.172,9.036-7.369,13.057
		c-3.193,4.023-7.016,7.254-11.473,9.702c-4.461,2.442-9.35,3.66-14.668,3.66c-5.652,0-10.262-1.306-13.846-3.92
		c-3.582-2.615-6.152-5.921-7.719-9.913c-1.557-3.986-2.342-8.035-2.342-12.139c0-6.178,1.523-12.428,4.57-18.734
		c3.043-6.309,7.338-11.508,12.881-15.615c5.537-4.097,11.871-6.146,19.004-6.146c5.482,0,9.988,1.283,13.518,3.858
		c3.52,2.566,6.066,5.865,7.646,9.886C863.596,80.552,864.381,84.785,864.381,89.235 M852.982,82.747
		c0-10.406-4.182-15.615-12.545-15.615c-2.197,0-4.318,0.446-6.377,1.328c-2.055,0.886-4.008,2.315-5.84,4.281
		c-1.844,1.976-3.5,4.489-4.98,7.545c-1.973,4.259-3.719,9.097-5.227,14.503c-1.51,5.412-2.264,10.403-2.264,14.976
		c0,10.059,4.076,15.089,12.221,15.089c4.523,0,8.418-1.63,11.682-4.895c3.268-3.263,5.992-7.831,8.189-13.697
		C851.271,96.992,852.982,89.151,852.982,82.747"/>
	<path fill="#FFFFFF" d="M922.885,80.103c0,1.635-0.273,3.413-0.824,5.317c-0.553,1.91-1.512,3.756-2.875,5.535
		c-1.381,1.785-3.32,3.314-5.826,4.594c-2.512,1.275-5.662,2.073-9.445,2.386c1.375,1.23,2.479,2.641,3.313,4.239
		c0.832,1.586,1.75,4.245,2.734,7.966c0.738,2.749,1.451,4.958,2.121,6.625c0.67,1.671,1.674,3.14,3.006,4.401
		c1.324,1.265,3.162,2.116,5.49,2.553l-1.154,4.357h-14.357c-0.734-1.17-1.451-2.616-2.137-4.357
		c-0.691-1.733-1.74-4.904-3.174-9.507l-1.686-5.538c-0.846-2.898-1.52-4.936-2.01-6.1c-0.494-1.168-1.297-2.082-2.412-2.747
		c-1.107-0.662-2.805-0.992-5.076-0.992h-2.35l-4.316,16.184c-0.494,1.797-0.742,3.152-0.742,4.065c0,1.989,0.67,3.258,2.016,3.81
		c1.346,0.552,3.029,0.825,5.063,0.825l-1.191,4.357h-25.262l1.154-4.357c1.535,0,2.725-0.204,3.576-0.613
		c0.852-0.41,1.557-1.129,2.117-2.148c0.564-1.026,1.094-2.504,1.582-4.428l10.619-40.118c0.49-1.897,0.742-3.14,0.742-3.739
		c0-1.544-0.5-2.665-1.482-3.36c-0.988-0.689-2.1-1.036-3.334-1.036h-1.602l1.104-4.353h26.459c2.936,0,5.334,0.167,7.217,0.516
		c1.875,0.349,3.709,1.058,5.496,2.129c2.164,1.232,3.947,2.99,5.344,5.28C922.178,74.131,922.885,76.878,922.885,80.103
		 M911.322,78.444c0-4.229-1.203-6.923-3.604-8.091c-2.398-1.165-5.238-1.752-8.537-1.752h-4.979l-6.742,25.551h4.318
		c6.174,0,10.432-0.771,12.791-2.319c2.141-1.385,3.803-3.321,4.98-5.794C910.732,83.564,911.322,81.033,911.322,78.444"/>
	<path fill="#FFFFFF" d="M966.363,63.919l-1.193,4.352c-1.129,0.035-2.059,0.3-2.795,0.806c-0.742,0.499-1.342,1.24-1.793,2.197
		c-0.449,0.962-0.926,2.359-1.424,4.193l-10.447,39.553c-0.492,1.794-0.736,3.182-0.736,4.161c0,1.61,0.57,2.771,1.703,3.476
		c1.137,0.709,2.475,1.068,4.014,1.068l-1.068,4.352H929.42l1.195-4.352c1.971,0,3.373-0.623,4.193-1.871
		c0.82-1.244,1.533-3.021,2.139-5.324l10.529-39.505c0.498-1.99,0.742-3.375,0.742-4.163c0-1.831-0.498-3.017-1.504-3.572
		c-1-0.552-2.098-0.891-3.309-1.019l1.191-4.352H966.363z"/>
	<path fill="#FFFFFF" d="M1027.611,89.235c0,4.379-0.852,8.916-2.568,13.599c-1.711,4.684-4.17,9.036-7.363,13.057
		c-3.191,4.023-7.02,7.254-11.482,9.702c-4.449,2.442-9.344,3.66-14.662,3.66c-5.648,0-10.266-1.306-13.844-3.92
		c-3.578-2.615-6.154-5.921-7.715-9.913c-1.561-3.986-2.342-8.035-2.342-12.139c0-6.178,1.521-12.428,4.564-18.734
		c3.043-6.309,7.336-11.508,12.877-15.615c5.543-4.097,11.871-6.146,19.004-6.146c5.482,0,9.994,1.283,13.516,3.858
		c3.523,2.566,6.072,5.865,7.656,9.886C1026.826,80.552,1027.611,84.785,1027.611,89.235 M1016.221,82.747
		c0-10.406-4.186-15.615-12.551-15.615c-2.195,0-4.32,0.446-6.377,1.328c-2.055,0.886-4.004,2.315-5.842,4.281
		c-1.84,1.976-3.492,4.489-4.979,7.545c-1.977,4.259-3.713,9.097-5.227,14.503c-1.508,5.412-2.256,10.403-2.256,14.976
		c0,10.059,4.072,15.089,12.219,15.089c4.523,0,8.418-1.63,11.682-4.895c3.258-3.263,5.992-7.831,8.184-13.697
		C1014.506,96.992,1016.221,89.151,1016.221,82.747"/>
	<path fill="#FFFFFF" d="M1077.445,63.919l-2.51,19.208h-3.957c-0.268-2.271-0.727-4.512-1.369-6.716
		c-0.645-2.209-1.836-4.259-3.564-6.151c-1.723-1.893-4.127-2.84-7.197-2.84c-2.494,0-4.549,0.771-6.168,2.32
		c-1.619,1.544-2.43,3.646-2.43,6.292c0,1.765,0.375,3.431,1.133,4.992c0.754,1.557,1.791,3.118,3.109,4.662
		c1.314,1.542,2.875,3.201,4.691,4.964c3.449,3.375,6.068,6.505,7.85,9.394c1.785,2.887,2.678,6.218,2.678,10
		c0,3.188-0.729,6.257-2.178,9.203c-1.457,2.955-3.57,5.358-6.338,7.224c-2.77,1.856-5.967,2.787-9.586,2.787
		c-1.563,0-3.145-0.248-4.75-0.732c-1.605-0.49-3.127-1.239-4.568-2.244c-1.443-1.016-2.885-2.356-4.34-4.027
		c-0.635,0.729-1.512,2.51-2.637,5.349h-3.867l2.633-22.378h3.871c0.105,3.562,0.604,6.605,1.482,9.127
		c0.873,2.528,2.01,4.524,3.408,6.011c1.398,1.481,2.893,2.553,4.471,3.214c1.574,0.667,3.088,0.997,4.543,0.997
		c1.619,0,3.064-0.427,4.338-1.279c1.279-0.852,2.277-2.011,3.004-3.479c0.732-1.463,1.094-3.065,1.094-4.797
		c0-1.735-0.291-3.269-0.869-4.595c-0.574-1.323-1.416-2.665-2.525-4.018c-1.111-1.358-3.057-3.537-5.822-6.532
		c-3.51-3.783-5.957-7.014-7.342-9.696c-1.391-2.681-2.078-5.486-2.078-8.422c0-3.316,0.785-6.434,2.359-9.37
		c1.576-2.928,3.697-5.265,6.338-6.999c2.65-1.738,5.455-2.602,8.41-2.602c4.475,0,8.549,2.033,12.217,6.103
		c0.17-0.287,0.402-0.648,0.707-1.088c0.301-0.442,0.6-0.94,0.904-1.492c0.299-0.55,0.656-1.348,1.072-2.389H1077.445z"/>
	<path fill="#FFFFFF" d="M1173.59,80.194c0,2.015-0.305,3.991-0.908,5.913c-0.6,1.924-1.574,3.741-2.916,5.442
		c-1.348,1.702-3.131,3.189-5.35,4.449c-2.277,1.258-5.145,2.101-8.598,2.506c-3.457,0.41-6.707,0.616-9.75,0.616h-5.393
		l-4.234,15.899c-0.492,1.983-0.74,3.377-0.74,4.161c0,1.703,0.578,2.884,1.729,3.55c1.15,0.658,2.316,0.994,3.492,0.994h1.15
		l-1.15,4.352h-23.777l1.191-4.352c1.76,0,3.1-0.547,4.035-1.632c0.93-1.094,1.725-2.941,2.381-5.562l10.617-40.123
		c0.49-1.826,0.742-3.073,0.742-3.734c0-1.927-0.59-3.137-1.773-3.643c-1.178-0.503-2.547-0.759-4.109-0.759l1.068-4.352h22.832
		c2.744,0,5.021,0.185,6.848,0.547c1.832,0.361,3.643,1.159,5.455,2.389C1171.199,70.1,1173.59,74.55,1173.59,80.194
		 M1162.072,77.781c0-3.942-0.941-6.459-2.818-7.544c-1.883-1.089-4.025-1.637-6.439-1.637h-3.99l-6.914,25.833h4.979
		c4.387,0,7.598-0.962,9.625-2.884c0.959-0.947,1.867-2.133,2.719-3.571c0.852-1.438,1.539-3.029,2.059-4.775
		C1161.807,81.446,1162.072,79.644,1162.072,77.781"/>
	<path fill="#FFFFFF" d="M1218.436,123.724l-1.102,4.352h-25.346l1.148-4.352c2.113,0,3.746-0.287,4.895-0.852
		c1.152-0.569,1.977-1.601,2.471-3.101c0.494-1.5,0.74-3.669,0.74-6.504v-8.047h-17.529l-6.004,10.08
		c-1.457,2.492-2.184,4.291-2.184,5.398c0,2.015,1.689,3.026,5.063,3.026h2.346l-1.146,4.352h-20.002l1.199-4.352
		c1.891-0.16,3.779-1.24,5.654-3.246c1.877-1.998,3.928-4.798,6.15-8.397l30.238-49.296h7.16l-0.576,53.464
		c0,2.111,0.201,3.682,0.615,4.705c0.416,1.022,1.096,1.741,2.055,2.151C1215.238,123.52,1216.629,123.724,1218.436,123.724
		 M1201.652,75.75l-15.178,25.117h14.768L1201.652,75.75z"/>
	<path fill="#FFFFFF" d="M1276.816,63.919l-2.514,19.208h-3.951c-0.27-2.271-0.732-4.512-1.375-6.716
		c-0.639-2.209-1.834-4.259-3.561-6.151c-1.723-1.893-4.127-2.84-7.195-2.84c-2.496,0-4.551,0.771-6.174,2.32
		c-1.619,1.544-2.424,3.646-2.424,6.292c0,1.765,0.373,3.431,1.131,4.992c0.752,1.557,1.791,3.118,3.105,4.662
		c1.318,1.542,2.879,3.201,4.691,4.964c3.453,3.375,6.068,6.505,7.855,9.394c1.783,2.887,2.676,6.218,2.676,10
		c0,3.188-0.729,6.257-2.184,9.203c-1.455,2.955-3.566,5.358-6.338,7.224c-2.764,1.856-5.961,2.787-9.586,2.787
		c-1.561,0-3.139-0.248-4.75-0.732c-1.6-0.49-3.125-1.239-4.563-2.244c-1.441-1.016-2.889-2.356-4.344-4.027
		c-0.631,0.729-1.508,2.51-2.633,5.349h-3.871l2.631-22.378h3.873c0.105,3.562,0.605,6.605,1.486,9.127
		c0.869,2.528,2.01,4.524,3.408,6.011c1.398,1.481,2.889,2.553,4.467,3.214c1.576,0.667,3.088,0.997,4.547,0.997
		c1.613,0,3.064-0.427,4.34-1.279c1.277-0.852,2.275-2.011,3.002-3.479c0.729-1.463,1.094-3.065,1.094-4.797
		c0-1.735-0.291-3.269-0.869-4.595c-0.572-1.323-1.418-2.665-2.531-4.018c-1.105-1.358-3.051-3.537-5.82-6.532
		c-3.504-3.783-5.957-7.014-7.342-9.696c-1.385-2.681-2.082-5.486-2.082-8.422c0-3.316,0.795-6.434,2.367-9.37
		c1.576-2.928,3.691-5.265,6.338-6.999c2.65-1.738,5.455-2.602,8.41-2.602c4.471,0,8.545,2.033,12.219,6.103
		c0.168-0.287,0.396-0.648,0.701-1.088c0.305-0.442,0.604-0.94,0.902-1.492c0.305-0.55,0.664-1.348,1.074-2.389H1276.816z"/>
	<path fill="#FFFFFF" d="M1343.553,63.919l-4.855,18.406h-3.902c0.242-1.576,0.371-3.029,0.371-4.353
		c0-4.075-0.781-6.645-2.328-7.735c-1.553-1.089-3.533-1.637-5.941-1.637h-4.898l-12.383,46.418c-0.494,1.794-0.74,3.182-0.74,4.161
		c0,1.765,0.568,2.968,1.707,3.594c1.137,0.631,2.266,0.95,3.395,0.95h2.055l-1.191,4.352h-27.643l1.109-4.352h1.355
		c2.801,0,4.684-0.455,5.658-1.372c0.975-0.918,1.828-2.826,2.57-5.729l12.752-48.022h-3.041h-1.156
		c-2.854,0-5.561,0.849-8.123,2.536c-2.566,1.686-4.957,5.412-7.178,11.188h-3.947l4.895-18.406H1343.553z"/>
	<path fill="#FFFFFF" d="M1392.783,79.533h-3.869c-1.256-3.594-2.441-6.151-3.557-7.665c-1.111-1.516-2.271-2.438-3.477-2.772
		c-1.213-0.322-3.041-0.49-5.512-0.49h-6.09l-6.293,23.892h2.756c2.549,0,4.518-0.299,5.904-0.898c1.387-0.6,2.447-1.544,3.189-2.84
		c0.74-1.292,1.451-3.201,2.139-5.729h4.035l-6.746,25.272h-4.035c0.66-2.46,0.982-4.404,0.982-5.82
		c0-2.306-0.662-3.761-1.992-4.379c-1.332-0.617-2.928-0.921-4.799-0.921h-2.707l-4.9,18.212c-0.383,1.362-0.576,2.619-0.576,3.783
		c0,0.917,0.232,1.671,0.705,2.277c0.463,0.599,1.389,1.076,2.77,1.441c1.393,0.361,3.201,0.542,5.455,0.542
		c4.906,0,8.633-1.117,11.174-3.36c2.535-2.241,4.762-5.358,6.68-9.367h4.156l-4.645,17.367h-44.846l1.193-4.352
		c1.975,0,3.396-0.65,4.256-1.946c0.863-1.292,1.588-3.037,2.166-5.251l10.609-40.115c0.492-1.834,0.74-3.078,0.74-3.744
		c0-1.632-0.512-2.783-1.521-3.427c-1.014-0.643-2.254-0.97-3.709-0.97l1.117-4.352h38.84L1392.783,79.533z"/>
	<path fill="#FFFFFF" d="M1462.756,63.919l-1.191,4.352c-2.006,0.189-3.633,0.695-4.895,1.512c-1.26,0.825-2.289,1.967-3.082,3.435
		c-0.803,1.465-1.459,3.287-1.98,5.464l-6.539,27.009c-0.688,2.911-1.473,5.604-2.342,8.091c-0.881,2.496-2.152,4.914-3.805,7.263
		c-1.664,2.35-3.918,4.308-6.77,5.869c-2.857,1.557-6.367,2.342-10.535,2.342c-3.725,0-7.078-0.648-10.035-1.941
		c-2.965-1.296-5.289-3.113-6.973-5.462c-1.689-2.346-2.531-4.988-2.531-7.924c0-1.424,0.133-2.894,0.41-4.423
		c0.273-1.534,0.676-3.29,1.191-5.278l7.244-27.301c0.578-2.173,0.861-3.594,0.861-4.254c0-1.799-0.58-2.96-1.727-3.48
		c-1.154-0.516-2.496-0.825-4.029-0.921l1.188-4.352h25.307l-1.195,4.352c-1.949,0-3.428,0.159-4.424,0.472
		c-1.004,0.322-1.813,0.957-2.43,1.917c-0.613,0.962-1.23,2.536-1.83,4.71l-8.6,32.547c-0.793,3.188-1.189,5.584-1.189,7.192
		c0,2.805,0.992,5.054,2.98,6.743c1.99,1.689,4.424,2.531,7.303,2.531c2.959,0,5.473-0.648,7.535-1.941
		c2.053-1.296,3.719-2.923,4.992-4.898c1.275-1.971,2.26-3.964,2.965-5.984c0.701-2.015,1.268-3.977,1.705-5.869l6.994-28.195
		c0.385-1.544,0.574-2.712,0.574-3.502c0-2.332-0.711-3.849-2.139-4.537c-1.43-0.697-3.07-1.09-4.932-1.186l1.188-4.352H1462.756z"
		/>
	<path fill="#FFFFFF" d="M1519.531,80.103c0,1.635-0.275,3.413-0.826,5.317c-0.549,1.91-1.506,3.756-2.873,5.535
		c-1.377,1.785-3.316,3.314-5.822,4.594c-2.514,1.275-5.656,2.073-9.449,2.386c1.375,1.23,2.479,2.641,3.316,4.239
		c0.828,1.586,1.746,4.245,2.732,7.966c0.746,2.749,1.447,4.958,2.117,6.625c0.67,1.671,1.68,3.14,3.008,4.401
		c1.328,1.265,3.162,2.116,5.494,2.553l-1.154,4.357h-14.359c-0.734-1.17-1.455-2.616-2.139-4.357
		c-0.684-1.733-1.74-4.904-3.174-9.507l-1.686-5.538c-0.846-2.898-1.521-4.936-2.01-6.1c-0.494-1.168-1.297-2.082-2.41-2.747
		c-1.109-0.662-2.803-0.992-5.078-0.992h-2.346l-4.322,16.184c-0.494,1.797-0.736,3.152-0.736,4.065c0,1.989,0.67,3.258,2.016,3.81
		c1.34,0.552,3.025,0.825,5.059,0.825l-1.191,4.357h-25.26l1.15-4.357c1.537,0,2.727-0.204,3.578-0.613
		c0.852-0.41,1.557-1.129,2.121-2.148c0.559-1.026,1.088-2.504,1.578-4.428l10.623-40.118c0.486-1.897,0.736-3.14,0.736-3.739
		c0-1.544-0.494-2.665-1.482-3.36c-0.982-0.689-2.094-1.036-3.334-1.036h-1.6l1.102-4.353h26.459c2.938,0,5.336,0.167,7.219,0.516
		c1.875,0.349,3.713,1.058,5.5,2.129c2.16,1.232,3.945,2.99,5.34,5.28C1518.828,74.131,1519.531,76.878,1519.531,80.103
		 M1507.969,78.444c0-4.229-1.205-6.923-3.6-8.091c-2.402-1.165-5.242-1.752-8.541-1.752h-4.975l-6.746,25.551h4.322
		c6.168,0,10.428-0.771,12.791-2.319c2.135-1.385,3.797-3.321,4.975-5.794C1507.383,83.564,1507.969,81.033,1507.969,78.444"/>
	<path fill="#FFFFFF" d="M384.535,189.784l-0.538,2.101h-12.232l0.56-2.101c1.014,0,1.809-0.136,2.364-0.41
		c0.55-0.277,0.953-0.771,1.186-1.498c0.243-0.724,0.361-1.772,0.361-3.141v-3.884h-8.457l-2.907,4.868
		c-0.692,1.205-1.045,2.069-1.045,2.602c0,0.975,0.813,1.463,2.444,1.463h1.127l-0.555,2.101h-9.647l0.577-2.101
		c0.908-0.079,1.821-0.595,2.725-1.561c0.908-0.975,1.897-2.323,2.968-4.056l14.591-23.791h3.458l-0.277,25.802
		c0,1.014,0.101,1.772,0.299,2.271c0.199,0.491,0.528,0.842,0.992,1.036C382.992,189.68,383.663,189.784,384.535,189.784
		 M376.434,166.628l-7.328,12.123h7.129L376.434,166.628z"/>
	<path fill="#FFFFFF" d="M466.154,160.918l-0.538,2.099c-1.067,0.11-1.919,0.473-2.54,1.09c-0.617,0.613-1.213,1.988-1.765,4.119
		l-6.393,23.887h-2.523l-9.092-23.2l-4.19,15.821c-0.278,1.082-0.418,1.862-0.418,2.329c0,1.023,0.339,1.729,1.022,2.121
		c0.68,0.402,1.425,0.599,2.236,0.599l-0.577,2.101h-9.014l0.555-2.101c1.217-0.211,2.118-0.833,2.7-1.852
		c0.582-1.023,1.08-2.337,1.49-3.952l4.846-18.339l-0.44-0.837c-0.437-0.82-0.852-1.328-1.249-1.509
		c-0.396-0.18-1.151-0.277-2.261-0.277l0.572-2.099h7.33l9.014,23.063l3.872-14.542c0.079-0.322,0.185-0.71,0.317-1.183
		c0.127-0.457,0.243-0.894,0.331-1.299c0.083-0.402,0.123-0.777,0.123-1.129c0-0.666-0.251-1.306-0.754-1.905
		c-0.498-0.601-1.375-0.905-2.624-0.905l0.579-2.099H466.154z"/>
	<path fill="#FFFFFF" d="M533.699,189.784l-0.535,2.101h-12.232l0.555-2.101c1.02,0,1.805-0.136,2.365-0.413
		c0.555-0.274,0.951-0.773,1.189-1.5c0.238-0.714,0.361-1.764,0.361-3.136v-3.879h-8.457l-2.906,4.863
		c-0.697,1.2-1.045,2.069-1.045,2.602c0,0.975,0.811,1.463,2.439,1.463h1.131l-0.555,2.101h-9.652l0.573-2.101
		c0.913-0.074,1.826-0.599,2.734-1.564c0.903-0.967,1.897-2.319,2.968-4.053l14.59-23.795h3.465l-0.283,25.801
		c0,1.019,0.096,1.777,0.299,2.271c0.199,0.498,0.529,0.847,0.992,1.041C532.16,189.683,532.824,189.784,533.699,189.784
		 M525.602,166.625l-7.328,12.126h7.129L525.602,166.625z M534.354,150.208l-5.855,7.814h-1.43l2.088-7.814H534.354z"/>
	<path fill="#FFFFFF" d="M606.523,183.457l-2.227,8.427h-22.613l0.574-2.101c0.779,0,1.389-0.141,1.813-0.423
		c0.422-0.282,0.73-0.653,0.93-1.107c0.199-0.463,0.416-1.107,0.637-1.944l5.32-19.91c0.094-0.396,0.139-0.758,0.139-1.098
		c0-1.517-0.77-2.28-2.303-2.28h-0.596l0.596-2.104h12.254l-0.576,2.104c-0.953,0-1.664,0.076-2.127,0.229
		c-0.463,0.151-0.828,0.451-1.09,0.905c-0.264,0.444-0.551,1.208-0.859,2.288l-4.82,18.204c-0.355,1.257-0.537,2.239-0.537,2.941
		c0,0.565,0.182,1.006,0.547,1.314c0.365,0.313,0.814,0.516,1.35,0.604c0.537,0.093,1.146,0.142,1.84,0.142
		c1.547,0,2.883-0.142,4.008-0.415c1.129-0.278,2.182-0.856,3.156-1.746c0.98-0.891,1.861-2.236,2.643-4.031H606.523z"/>
	<path fill="#FFFFFF" d="M671.328,160.918l-0.572,2.099c-0.547,0.022-0.996,0.145-1.354,0.388c-0.357,0.248-0.645,0.605-0.865,1.068
		c-0.221,0.468-0.443,1.137-0.682,2.02l-5.047,19.085c-0.232,0.869-0.355,1.539-0.355,2.01c0,0.776,0.277,1.336,0.824,1.68
		c0.547,0.345,1.195,0.516,1.939,0.516l-0.521,2.101h-11.199l0.582-2.101c0.953,0,1.623-0.303,2.02-0.904
		c0.396-0.599,0.746-1.458,1.035-2.57l5.082-19.063c0.238-0.962,0.361-1.627,0.361-2.01c0-0.886-0.246-1.46-0.729-1.724
		c-0.484-0.265-1.018-0.429-1.6-0.495l0.576-2.099H671.328z"/>
	<path fill="#FFFFFF" d="M740.021,160.918l-1.211,9.274h-1.9c-0.137-1.098-0.357-2.178-0.666-3.245
		c-0.309-1.063-0.891-2.055-1.721-2.963c-0.832-0.913-1.992-1.377-3.469-1.377c-1.209,0-2.207,0.375-2.982,1.12
		c-0.781,0.75-1.174,1.76-1.174,3.039c0,0.852,0.182,1.659,0.543,2.408c0.365,0.754,0.869,1.504,1.5,2.249
		c0.641,0.751,1.395,1.544,2.266,2.4c1.668,1.627,2.934,3.135,3.793,4.532c0.861,1.39,1.289,3.002,1.289,4.829
		c0,1.539-0.344,3.021-1.051,4.44c-0.701,1.426-1.719,2.585-3.057,3.485c-1.34,0.894-2.883,1.343-4.625,1.343
		c-0.754,0-1.521-0.118-2.297-0.353c-0.768-0.233-1.508-0.595-2.201-1.083c-0.695-0.486-1.393-1.134-2.096-1.941
		c-0.307,0.353-0.73,1.208-1.27,2.58h-1.869l1.275-10.799h1.863c0.055,1.716,0.293,3.188,0.715,4.406
		c0.424,1.216,0.973,2.186,1.65,2.901c0.67,0.713,1.389,1.233,2.152,1.547c0.764,0.327,1.49,0.484,2.195,0.484
		c0.777,0,1.482-0.207,2.096-0.617c0.613-0.415,1.098-0.97,1.445-1.676c0.348-0.709,0.525-1.485,0.525-2.323
		c0-0.834-0.133-1.576-0.414-2.209c-0.273-0.64-0.684-1.288-1.219-1.946c-0.537-0.651-1.473-1.702-2.813-3.152
		c-1.689-1.824-2.879-3.386-3.545-4.674c-0.666-1.296-1.002-2.651-1.002-4.07c0-1.592,0.375-3.1,1.146-4.519
		c0.76-1.417,1.773-2.545,3.057-3.378c1.279-0.834,2.629-1.258,4.057-1.258c2.156,0,4.123,0.984,5.9,2.946
		c0.074-0.141,0.189-0.313,0.34-0.524c0.141-0.216,0.285-0.454,0.432-0.719c0.146-0.265,0.322-0.653,0.521-1.156H740.021z"/>
	<path fill="#FFFFFF" d="M803.916,160.918l-0.574,2.099c-0.547,0.022-0.996,0.145-1.354,0.388c-0.357,0.248-0.639,0.605-0.863,1.068
		c-0.219,0.468-0.447,1.137-0.686,2.02l-5.043,19.085c-0.234,0.869-0.359,1.539-0.359,2.01c0,0.776,0.279,1.336,0.826,1.68
		c0.551,0.345,1.195,0.516,1.941,0.516l-0.516,2.101h-11.207l0.582-2.101c0.953,0,1.623-0.303,2.02-0.904
		c0.396-0.599,0.746-1.458,1.037-2.57l5.078-19.063c0.238-0.962,0.363-1.627,0.363-2.01c0-0.886-0.248-1.46-0.729-1.724
		c-0.484-0.265-1.018-0.429-1.6-0.495l0.578-2.099H803.916z"/>
	<path fill="#FFFFFF" d="M872.609,160.918l-1.207,9.274h-1.906c-0.137-1.098-0.357-2.178-0.664-3.245
		c-0.311-1.063-0.889-2.055-1.717-2.963c-0.834-0.913-1.998-1.377-3.475-1.377c-1.209,0-2.201,0.375-2.98,1.12
		c-0.775,0.75-1.168,1.76-1.168,3.039c0,0.852,0.176,1.659,0.537,2.408c0.365,0.754,0.869,1.504,1.5,2.249
		c0.639,0.751,1.393,1.544,2.266,2.4c1.666,1.627,2.934,3.135,3.797,4.532c0.855,1.39,1.283,3.002,1.283,4.829
		c0,1.539-0.346,3.021-1.045,4.44c-0.707,1.426-1.725,2.585-3.057,3.485c-1.344,0.894-2.889,1.343-4.629,1.343
		c-0.756,0-1.521-0.118-2.299-0.353c-0.768-0.233-1.508-0.595-2.201-1.083c-0.697-0.486-1.389-1.134-2.094-1.941
		c-0.305,0.353-0.727,1.208-1.27,2.58h-1.869l1.273-10.799h1.865c0.055,1.716,0.295,3.188,0.715,4.406
		c0.422,1.216,0.975,2.186,1.648,2.901c0.676,0.713,1.393,1.233,2.152,1.547c0.762,0.327,1.496,0.484,2.195,0.484
		c0.781,0,1.473-0.207,2.096-0.617c0.613-0.415,1.104-0.97,1.447-1.676c0.348-0.709,0.527-1.485,0.527-2.323
		c0-0.834-0.137-1.576-0.418-2.209c-0.273-0.64-0.684-1.288-1.217-1.946c-0.537-0.651-1.473-1.702-2.811-3.152
		c-1.691-1.824-2.883-3.386-3.549-4.674c-0.666-1.296-1.002-2.651-1.002-4.07c0-1.592,0.381-3.1,1.148-4.519
		c0.758-1.417,1.777-2.545,3.057-3.378c1.277-0.834,2.627-1.258,4.055-1.258c2.16,0,4.123,0.984,5.9,2.946
		c0.08-0.141,0.195-0.313,0.34-0.524c0.143-0.216,0.291-0.454,0.432-0.719c0.15-0.265,0.322-0.653,0.521-1.156H872.609z"/>
	<path fill="#FFFFFF" d="M1005.695,161.104l-1.98,10.57h-1.91c0-0.125,0.006-0.226,0.01-0.318c0.008-0.092,0.008-0.207,0.008-0.347
		c0-2.4-0.379-4.244-1.15-5.522s-1.609-2.104-2.521-2.464c-0.914-0.366-1.729-0.551-2.443-0.551c-1.535,0-2.982,0.626-4.34,1.886
		c-1.354,1.258-2.525,2.901-3.523,4.939c-0.99,2.042-1.764,4.256-2.318,6.637c-0.561,2.381-0.834,4.578-0.834,6.588
		c0,1.37,0.186,2.624,0.557,3.771c0.365,1.142,0.938,2.059,1.713,2.756c0.773,0.705,1.738,1.053,2.889,1.053
		c1.086,0,2.264-0.344,3.523-1.041c1.262-0.688,2.443-1.689,3.525-2.99c1.084-1.301,1.947-2.862,2.582-4.671h1.902l-2.639,10.253
		h-1.666c0.066-0.564,0.098-1.088,0.098-1.574c0-0.503-0.031-1.023-0.098-1.556c-0.9,1.111-2.029,2.042-3.4,2.795
		c-1.357,0.759-2.818,1.132-4.365,1.132c-1.932,0-3.691-0.538-5.277-1.608c-1.588-1.072-2.836-2.541-3.736-4.396
		c-0.898-1.853-1.35-3.881-1.35-6.073c0-2.676,0.477-5.248,1.42-7.708c0.949-2.457,2.195-4.603,3.766-6.451
		c1.557-1.838,3.285-3.277,5.178-4.305c1.896-1.022,3.766-1.539,5.621-1.539c1.324,0,2.484,0.248,3.498,0.733
		c1.002,0.481,1.785,1.009,2.342,1.574c0.555,0.564,1.045,1.151,1.469,1.755c0.688-0.833,1.23-1.944,1.631-3.329H1005.695z"/>
	<path fill="#FFFFFF" d="M1075.76,183.457l-2.223,8.427h-22.615l0.576-2.101c0.775,0,1.385-0.141,1.805-0.423
		c0.428-0.282,0.736-0.653,0.934-1.107c0.197-0.463,0.41-1.107,0.635-1.944l5.322-19.91c0.094-0.396,0.137-0.758,0.137-1.098
		c0-1.517-0.768-2.28-2.303-2.28h-0.594l0.594-2.104h12.256l-0.578,2.104c-0.953,0-1.662,0.076-2.125,0.229
		c-0.467,0.151-0.828,0.451-1.094,0.905c-0.26,0.444-0.547,1.208-0.855,2.288l-4.824,18.204c-0.355,1.257-0.533,2.239-0.533,2.941
		c0,0.565,0.18,1.006,0.547,1.314c0.367,0.313,0.811,0.516,1.35,0.604c0.537,0.093,1.146,0.142,1.838,0.142
		c1.549,0,2.885-0.142,4.008-0.415c1.125-0.278,2.184-0.856,3.158-1.746c0.979-0.891,1.859-2.236,2.641-4.031H1075.76z"/>
	<path fill="#FFFFFF" d="M1140.566,160.918l-0.574,2.099c-0.547,0.019-0.998,0.145-1.354,0.388
		c-0.354,0.252-0.648,0.605-0.863,1.068c-0.221,0.463-0.443,1.137-0.686,2.02l-5.045,19.085c-0.238,0.869-0.354,1.539-0.354,2.01
		c0,0.776,0.275,1.336,0.82,1.68c0.547,0.345,1.195,0.516,1.938,0.516l-0.521,2.101h-11.195l0.576-2.101
		c0.953,0,1.633-0.303,2.031-0.904c0.395-0.599,0.738-1.458,1.025-2.57l5.084-19.063c0.242-0.957,0.357-1.627,0.357-2.01
		c0-0.886-0.236-1.46-0.727-1.724c-0.48-0.27-1.01-0.429-1.598-0.495l0.58-2.099H1140.566z M1140.566,150.208l-5.857,7.814h-1.428
		l2.08-7.814H1140.566z"/>
	<path fill="#FFFFFF" d="M1218.873,160.918l-0.539,2.099c-1.07,0.11-1.918,0.473-2.543,1.09c-0.619,0.613-1.209,1.988-1.764,4.119
		l-6.395,23.887h-2.52l-9.1-23.2l-4.186,15.821c-0.273,1.082-0.42,1.862-0.42,2.329c0,1.023,0.344,1.729,1.023,2.121
		c0.684,0.402,1.43,0.599,2.236,0.599l-0.578,2.101h-9.012l0.555-2.101c1.217-0.211,2.115-0.833,2.697-1.852
		c0.588-1.023,1.08-2.337,1.488-3.952l4.85-18.339l-0.438-0.837c-0.441-0.82-0.855-1.328-1.252-1.509
		c-0.396-0.18-1.15-0.277-2.262-0.277l0.574-2.099h7.328l9.014,23.063l3.871-14.542c0.08-0.322,0.189-0.71,0.313-1.183
		c0.139-0.457,0.248-0.894,0.336-1.299c0.084-0.402,0.129-0.777,0.129-1.129c0-0.666-0.258-1.306-0.756-1.905
		c-0.506-0.601-1.379-0.905-2.623-0.905l0.578-2.099H1218.873z"/>
	<path fill="#FFFFFF" d="M1280.361,160.918l-0.578,2.099c-0.541,0.022-0.996,0.145-1.35,0.388c-0.355,0.248-0.648,0.605-0.863,1.068
		c-0.221,0.468-0.445,1.137-0.688,2.02l-5.045,19.085c-0.234,0.869-0.354,1.539-0.354,2.01c0,0.776,0.275,1.336,0.824,1.68
		c0.549,0.345,1.191,0.516,1.938,0.516l-0.521,2.101h-11.195l0.572-2.101c0.957,0,1.633-0.303,2.029-0.904
		c0.396-0.599,0.74-1.458,1.027-2.57l5.084-19.063c0.242-0.962,0.361-1.627,0.361-2.01c0-0.886-0.242-1.46-0.729-1.724
		c-0.48-0.265-1.014-0.429-1.596-0.495l0.572-2.099H1280.361z"/>
	<path fill="#FFFFFF" d="M1355.031,161.104l-1.986,10.57h-1.904c0-0.125,0.006-0.226,0.01-0.318c0.01-0.092,0.01-0.207,0.01-0.347
		c0-2.4-0.381-4.244-1.152-5.522s-1.609-2.104-2.521-2.464c-0.914-0.366-1.729-0.551-2.443-0.551c-1.535,0-2.984,0.626-4.34,1.886
		c-1.354,1.258-2.525,2.901-3.527,4.939c-0.986,2.042-1.76,4.256-2.32,6.637c-0.555,2.381-0.828,4.578-0.828,6.588
		c0,1.37,0.182,2.624,0.557,3.771c0.365,1.142,0.939,2.059,1.715,2.756c0.771,0.705,1.736,1.053,2.887,1.053
		c1.086,0,2.264-0.344,3.525-1.041c1.26-0.688,2.443-1.689,3.523-2.99c1.084-1.301,1.943-2.862,2.584-4.671h1.9l-2.637,10.253
		h-1.668c0.066-0.564,0.098-1.088,0.098-1.574c0-0.503-0.031-1.023-0.098-1.556c-0.9,1.111-2.029,2.042-3.398,2.795
		c-1.359,0.759-2.818,1.132-4.367,1.132c-1.932,0-3.689-0.538-5.283-1.608c-1.582-1.072-2.83-2.541-3.734-4.396
		c-0.895-1.853-1.344-3.881-1.344-6.073c0-2.676,0.477-5.248,1.418-7.708c0.949-2.457,2.197-4.603,3.766-6.451
		c1.557-1.838,3.287-3.277,5.178-4.305c1.896-1.022,3.766-1.539,5.623-1.539c1.324,0,2.482,0.248,3.496,0.733
		c1.002,0.481,1.783,1.009,2.342,1.574c0.555,0.564,1.045,1.151,1.469,1.755c0.688-0.833,1.227-1.944,1.623-3.329H1355.031z"/>
	<path fill="#FFFFFF" d="M1432.342,173.133c0,2.118-0.414,4.308-1.238,6.566c-0.83,2.263-2.012,4.362-3.555,6.301
		c-1.539,1.944-3.387,3.506-5.539,4.684s-4.51,1.772-7.078,1.772c-2.729,0-4.951-0.636-6.684-1.9
		c-1.727-1.261-2.963-2.857-3.719-4.781c-0.754-1.927-1.133-3.879-1.133-5.859c0-2.98,0.732-5.997,2.199-9.039
		c1.475-3.043,3.543-5.562,6.215-7.538c2.682-1.979,5.736-2.968,9.178-2.968c2.645,0,4.822,0.618,6.521,1.861
		c1.701,1.244,2.926,2.832,3.689,4.771C1431.963,168.949,1432.342,170.99,1432.342,173.133 M1426.842,170.007
		c0-5.019-2.018-7.536-6.053-7.536c-1.059,0-2.086,0.211-3.074,0.644c-0.996,0.423-1.941,1.115-2.822,2.063
		c-0.891,0.953-1.689,2.167-2.402,3.643c-0.953,2.056-1.795,4.388-2.52,6.998c-0.73,2.611-1.092,5.018-1.092,7.229
		c0,4.854,1.961,7.279,5.895,7.279c2.188,0,4.066-0.784,5.641-2.359c1.57-1.578,2.889-3.778,3.947-6.61
		C1426.018,176.881,1426.842,173.103,1426.842,170.007"/>
	<path fill="#FFFFFF" d="M1503.74,160.918l-1.209,9.274h-1.904c-0.137-1.098-0.359-2.178-0.666-3.245
		c-0.314-1.063-0.887-2.055-1.721-2.963c-0.83-0.913-1.992-1.377-3.471-1.377c-1.207,0-2.199,0.375-2.98,1.12
		c-0.775,0.75-1.174,1.76-1.174,3.039c0,0.852,0.182,1.659,0.543,2.408c0.367,0.754,0.869,1.504,1.5,2.249
		c0.639,0.751,1.393,1.544,2.266,2.4c1.668,1.627,2.934,3.135,3.797,4.532c0.855,1.39,1.285,3.002,1.285,4.829
		c0,1.539-0.346,3.021-1.047,4.44c-0.705,1.426-1.725,2.585-3.055,3.485c-1.346,0.894-2.889,1.343-4.633,1.343
		c-0.754,0-1.52-0.118-2.295-0.353c-0.768-0.233-1.51-0.595-2.201-1.083c-0.697-0.486-1.389-1.134-2.094-1.941
		c-0.305,0.353-0.73,1.208-1.271,2.58h-1.869l1.273-10.799h1.867c0.053,1.716,0.289,3.188,0.713,4.406
		c0.424,1.216,0.975,2.186,1.645,2.901c0.68,0.713,1.398,1.233,2.158,1.547c0.762,0.327,1.494,0.484,2.195,0.484
		c0.779,0,1.473-0.207,2.094-0.617c0.613-0.415,1.104-0.97,1.447-1.676c0.348-0.709,0.529-1.485,0.529-2.323
		c0-0.834-0.141-1.576-0.418-2.209c-0.275-0.64-0.686-1.288-1.219-1.946c-0.539-0.651-1.473-1.702-2.809-3.152
		c-1.695-1.824-2.883-3.386-3.551-4.674c-0.666-1.296-1.002-2.651-1.002-4.07c0-1.592,0.381-3.1,1.145-4.519
		c0.762-1.417,1.779-2.545,3.061-3.378c1.277-0.834,2.627-1.258,4.057-1.258c2.16,0,4.123,0.984,5.9,2.946
		c0.078-0.141,0.193-0.313,0.334-0.524c0.145-0.216,0.297-0.454,0.438-0.719c0.148-0.265,0.316-0.653,0.52-1.156H1503.74z"/>
</g>
</svg>
